<svg width="71" height="84" viewBox="0 0 71 84" fill="none" xmlns="http://www.w3.org/2000/svg">
<path d="M70.5911 19.4449C70.7027 19.4515 70.6684 19.3509 70.6834 19.3249C70.4848 19.3489 70.5897 19.4672 70.5911 19.4449Z" fill="#6E8058"/>
<path d="M68.6647 19.7414L68.6984 19.7031L68.4138 19.8159L68.6647 19.7414Z" fill="#6E8058"/>
<path d="M66.8597 19.8078C67.0376 19.9798 67.5124 19.7574 67.8322 19.8034L67.8878 19.8471L68.0311 19.6989C67.644 19.7294 67.1399 19.8425 66.8597 19.8078Z" fill="#6E8058"/>
<path d="M65.8777 19.4487C65.9406 19.5197 65.6764 19.5173 66.1009 19.4621C66.0836 19.4521 66.0749 19.4471 66.0613 19.4508C66.0253 19.4531 65.967 19.4541 65.8777 19.4487Z" fill="#6E8058"/>
<path d="M66.0613 19.4507C66.2498 19.4441 65.93 19.3981 66.0613 19.4507Z" fill="#6E8058"/>
<path d="M65.1864 19.5461L65.4336 19.4579C65.373 19.4229 65.1571 19.4368 65.2354 19.4012C64.9809 19.4621 65.0328 19.4921 65.1864 19.5461Z" fill="#6E8058"/>
<path d="M64.9575 19.7026L65.0854 19.661C65.0594 19.646 65.0234 19.6483 64.9575 19.7026Z" fill="#6E8058"/>
<path d="M65.3549 19.5741L65.0854 19.661C65.1287 19.686 65.1297 19.7443 65.2083 19.628C65.187 19.685 65.2443 19.6257 65.3549 19.5741Z" fill="#6E8058"/>
<path d="M65.5112 19.5835C65.6574 19.6102 65.8397 19.6346 65.5938 19.7004C66.0752 19.6666 65.9889 19.536 65.5112 19.5835Z" fill="#6E8058"/>
<path d="M66.777 19.991L66.9716 20.034L67.1282 19.9628C67.0449 20.0071 66.7624 19.9364 66.777 19.991Z" fill="#6E8058"/>
<path d="M63.6219 19.6358C63.6105 19.6755 63.7195 19.7268 63.7391 19.7728L63.918 19.7029C63.8201 19.6925 63.6365 19.6905 63.6219 19.6358Z" fill="#6E8058"/>
<path d="M63.7391 19.7728L63.4732 19.8734C63.7164 19.8521 63.7551 19.8051 63.7391 19.7728Z" fill="#6E8058"/>
<path d="M64.9317 19.9071L65.3729 19.723L64.8461 19.9154L64.9317 19.9071Z" fill="#6E8058"/>
<path d="M62.5621 19.7514L62.7077 19.6392L62.4465 19.8117L62.5621 19.7514Z" fill="#6E8058"/>
<path d="M61.8621 19.8438C61.9704 19.7563 61.6889 19.7438 61.8045 19.6836C61.6146 19.7125 61.4617 19.7974 61.3274 19.87C61.474 19.8161 61.6403 19.8081 61.8621 19.8438Z" fill="#6E8058"/>
<path d="M61.0925 19.9768C61.1658 19.9499 61.2441 19.9143 61.3274 19.87C61.2455 19.8919 61.1672 19.9276 61.0925 19.9768Z" fill="#6E8058"/>
<path d="M62.9968 19.8985C62.9758 19.8749 62.9252 19.8225 62.769 19.8132L62.8889 19.9055C62.9199 19.9118 62.9608 19.9008 62.9968 19.8985Z" fill="#6E8058"/>
<path d="M62.8925 19.9191C62.7709 19.9297 62.6903 19.9294 62.6543 19.9317C62.6817 19.9244 62.7536 19.9197 62.8925 19.9191Z" fill="#6E8058"/>
<path d="M63.0191 19.8998L62.9918 19.9072C63.0141 19.9085 63.0141 19.9085 63.0191 19.8998Z" fill="#6E8058"/>
<path d="M64.2025 19.8902C64.0409 19.9701 63.7167 20.0716 64.0538 20.1277C64.1621 20.0401 63.9712 20.0108 64.2025 19.8902Z" fill="#6E8058"/>
<path d="M63.1737 20.0122L63.4702 19.9986C63.4629 19.9713 63.4022 19.9363 63.4805 19.9007L63.1737 20.0122Z" fill="#6E8058"/>
<path d="M63.0357 20.0711L63.1737 20.0122L63.0657 20.0191L63.0357 20.0711Z" fill="#6E8058"/>
<path d="M61.6095 20.0213C61.4939 20.0816 61.3537 20.1045 61.1911 20.1261C61.361 20.1318 61.5409 20.1202 61.7035 20.0986C61.7235 20.064 61.7858 19.9961 61.6095 20.0213Z" fill="#6E8058"/>
<path d="M62.2349 19.9782L62.2076 19.9855C62.2249 19.9955 62.2385 19.9919 62.2349 19.9782Z" fill="#6E8058"/>
<path d="M59.6669 20.3662L59.6928 20.3812L59.6942 20.3589L59.6669 20.3662Z" fill="#6E8058"/>
<path d="M61.7294 20.1137C61.8547 20.1167 61.928 20.0897 61.9977 20.0491C61.907 20.0661 61.8027 20.0867 61.7035 20.0987C61.6935 20.116 61.6885 20.1246 61.7294 20.1137Z" fill="#6E8058"/>
<path d="M60.6654 20.0767C60.736 20.0943 60.8116 20.1034 60.8873 20.1124C60.8216 20.086 60.6854 20.042 60.6654 20.0767Z" fill="#6E8058"/>
<path d="M62.1643 19.9605L62.1829 19.9482C62.1296 19.9405 62.1383 19.9455 62.1643 19.9605Z" fill="#6E8058"/>
<path d="M62.1643 19.9605C62.1046 19.9838 62.0536 20.0121 62.0027 20.0404C62.0796 20.0271 62.1479 20.0088 62.2076 19.9855C62.1852 19.9842 62.1679 19.9742 62.1643 19.9605Z" fill="#6E8058"/>
<path d="M59.3211 21.125C59.3228 21.022 59.6324 20.8659 59.9335 20.9243C60.1921 20.7964 59.9626 20.5139 59.6928 20.3812C59.6902 20.4258 59.7011 20.4668 59.4166 20.5797C59.5269 20.6087 60.0702 20.5875 59.8426 20.7217C59.4725 20.8429 59.5275 20.7476 59.3402 20.7319C59.5185 20.8232 58.8937 21.0053 59.0096 21.1645L59.3265 21.0357C59.3388 21.0544 59.2318 21.1196 59.3211 21.125Z" fill="#6E8058"/>
<path d="M60.2366 20.2794L60.3508 20.2415C60.2156 20.2557 60.114 20.2317 59.9194 20.1887C59.7305 20.2759 59.6968 20.3142 59.6855 20.3539L60.2652 20.2498L60.2366 20.2794Z" fill="#6E8058"/>
<path d="M60.8832 20.1794C60.8046 20.2956 60.5264 20.3775 60.7182 20.4651C61.0657 20.4233 60.9495 20.3446 61.1507 20.276C60.5897 20.3678 61.2987 20.1998 60.8919 20.1844C61.0012 20.1551 61.1005 20.1431 61.1911 20.1261C61.0881 20.1244 60.9852 20.1227 60.8873 20.1124L60.8959 20.1174C60.9219 20.1324 60.9306 20.1374 60.8996 20.131L60.8859 20.1347C60.9032 20.1447 60.8932 20.162 60.8832 20.1794C60.7133 20.1736 60.8536 20.1507 60.8996 20.131L60.9096 20.1137C60.7233 20.1563 60.5334 20.1852 60.3595 20.2465C60.4724 20.2309 60.63 20.2179 60.8832 20.1794Z" fill="#6E8058"/>
<path d="M63.7736 20.3931C63.7562 20.3831 63.7562 20.3831 63.7526 20.3695C63.7203 20.3855 63.7016 20.3978 63.7736 20.3931Z" fill="#6E8058"/>
<path d="M63.5344 20.3474C63.5717 20.3228 63.6054 20.2845 63.7356 20.2789C63.8509 20.2992 63.7416 20.3285 63.7526 20.3695C63.8309 20.3339 64.0235 20.2603 63.7693 20.2406L63.732 20.2652C63.5038 20.2605 63.1966 20.1524 63.2289 20.1364C63.3092 20.2174 63.3771 20.2797 63.5344 20.3474Z" fill="#6E8058"/>
<path d="M62.2025 20.2944L61.7394 20.3965L61.9909 20.4609L61.9762 20.4062C62.2454 20.4 62.1775 20.3377 62.2025 20.2944Z" fill="#6E8058"/>
<path d="M59.6026 20.3175L59.6502 20.195L59.4 20.4084L59.6026 20.3175Z" fill="#6E8058"/>
<path d="M59.0029 20.4562L59.0096 20.3446L58.8516 20.4382L59.0029 20.4562Z" fill="#6E8058"/>
<path d="M28.7533 35.9699L28.666 36.0812C28.7183 36.0306 28.7383 35.9959 28.7533 35.9699Z" fill="#6E8058"/>
<path d="M29.4955 35.3245L29.4808 35.2699C29.4732 35.3232 29.4718 35.3455 29.4955 35.3245Z" fill="#6E8058"/>
<path d="M44.5732 24.7692C44.3536 24.7695 44.0871 24.7311 44.1537 24.8157L44.2526 24.8844C44.3683 24.8241 44.4689 24.7898 44.5732 24.7692Z" fill="#6E8058"/>
<path d="M35.7663 30.1231L35.8383 30.1185C35.8596 30.0615 35.881 30.0045 35.8973 29.9562C35.8537 30.0119 35.81 30.0675 35.7663 30.1231Z" fill="#6E8058"/>
<path d="M35.8958 30.5789L35.6399 30.6621C35.6945 30.6474 35.7765 30.6255 35.8958 30.5789Z" fill="#6E8058"/>
<path d="M24.8903 39.7209L24.8609 39.9118C25.0329 39.734 24.9186 39.7719 24.8903 39.7209Z" fill="#6E8058"/>
<path d="M52.8728 21.8938C52.6979 21.8967 52.5576 21.9197 52.4397 21.944C52.6592 21.9437 52.8401 21.9904 52.8728 21.8938Z" fill="#6E8058"/>
<path d="M28.302 34.8317C28.2483 34.9047 28.237 34.9443 28.2493 34.963C28.3166 34.8864 28.3329 34.8381 28.302 34.8317Z" fill="#6E8058"/>
<path d="M51.9479 22.0757C51.9839 22.0734 52.0062 22.0748 52.0422 22.0724C52.1615 22.0258 52.2858 21.9706 52.431 21.939C52.2698 21.9383 52.0935 21.9635 51.9479 22.0757Z" fill="#6E8058"/>
<path d="M13.5785 55.5335C13.5685 55.5509 13.5548 55.5545 13.5448 55.5718C13.5585 55.5682 13.5685 55.5509 13.5785 55.5335Z" fill="#6E8058"/>
<path d="M10.3344 60.3925C10.3471 60.3305 10.3834 60.2476 10.4061 60.1683C10.3861 60.2029 10.3598 60.2685 10.3344 60.3925Z" fill="#6E8058"/>
<path d="M56.5587 20.8696C56.6904 20.8416 56.5774 20.8572 56.5587 20.8696Z" fill="#6E8058"/>
<path d="M57.2706 21.1766C57.2469 21.1976 57.2283 21.2099 57.2356 21.2372C57.2419 21.2063 57.2519 21.1889 57.2706 21.1766Z" fill="#6E8058"/>
<path d="M56.7683 20.8866C56.715 20.8789 56.6567 20.8799 56.5934 20.8896C56.6207 20.8822 56.674 20.8899 56.7683 20.8866Z" fill="#6E8058"/>
<path d="M56.7263 20.8393C56.776 20.8333 56.812 20.831 56.8393 20.8237C56.8579 20.8114 56.8406 20.8014 56.7263 20.8393Z" fill="#6E8058"/>
<path d="M56.3812 20.9171C56.4581 20.9038 56.5214 20.8942 56.5934 20.8896C56.5711 20.8882 56.5538 20.8782 56.5624 20.8832C56.5264 20.8855 56.4718 20.9002 56.3812 20.9171Z" fill="#6E8058"/>
<path d="M18.7196 46.3889C18.7146 46.3976 18.7009 46.4012 18.6959 46.4099C18.6569 46.5375 18.6819 46.4942 18.7196 46.3889Z" fill="#6E8058"/>
<path d="M41.9652 27.1664L41.9752 27.1491L41.9565 27.1614L41.9652 27.1664Z" fill="#6E8058"/>
<path d="M41.5943 27.4488C41.7056 27.2359 41.8112 27.193 41.9615 27.1527L41.6921 26.9394L41.5943 27.4488Z" fill="#6E8058"/>
<path d="M27.0048 37.5585L27.318 37.416C27.134 37.7947 26.8878 37.9413 27.2033 37.8347C27.0098 37.5498 28.1187 36.9892 27.9252 36.7043L28.1365 36.6184C28.0892 36.6603 28.0928 36.674 28.0455 36.716C28.4666 36.5665 28.1179 36.3305 28.5448 36.0112C28.6991 35.904 28.827 35.8624 28.762 35.9749L29.0153 35.6362C29.105 35.5609 29.1233 35.6292 29.0336 35.7045L29.4945 35.2662L29.4982 35.2799C29.5308 35.1833 29.6285 34.9741 29.6872 34.8925C29.8474 34.8349 29.6422 34.9705 29.7091 34.9745L29.9361 34.7014C30.1073 34.6848 29.9227 34.9246 29.7261 35.0651C30.1971 35.1292 29.9021 34.8203 30.5905 34.548L30.3525 34.7801C30.6377 34.8062 30.8073 34.5924 31.1688 34.4662C31.0609 34.4732 30.3902 34.6749 30.6408 34.3808C30.7464 34.3378 30.8584 34.2639 30.9857 34.0834C31.061 34.173 31.1993 34.0335 31.3922 33.8793L31.4735 34.0186C31.6604 33.8147 31.5961 33.7661 31.6811 33.6189C31.9287 33.45 32.055 33.5114 32.1689 33.554C32.5658 33.2867 31.7854 33.5982 32.22 33.2256C32.5768 33.0275 32.7601 32.81 33.0867 32.4443C33.3453 32.3164 33.1024 32.5572 33.2116 32.5279L33.3343 32.2755C33.3853 32.2472 33.3876 32.2831 33.3949 32.3105C33.5346 32.1486 33.31 32.1575 33.5603 31.9441C33.5364 31.7455 34.273 31.7897 34.5066 31.405C34.6196 31.3894 34.5222 31.5179 34.5829 31.5529C34.9841 31.138 34.9391 31.2159 35.2274 30.8165L35.6112 30.6917C35.3034 30.7449 35.533 30.4272 35.7513 30.1491C35.6347 30.151 35.5354 30.163 35.4721 30.1727L35.8607 29.8196C35.924 29.81 35.915 29.8856 35.8773 29.9909C35.8973 29.9562 35.921 29.9353 35.936 29.9093C36.1272 29.858 36.0882 29.9856 36.0255 30.1342C35.9536 30.1388 35.8903 30.1485 35.8183 30.1531C35.7643 30.3067 35.7189 30.4652 35.7919 30.5189C35.8119 30.4843 35.8505 30.4373 35.9115 30.3917C35.9002 30.4313 35.8938 30.4623 35.9111 30.4723C35.9335 30.4736 35.9635 30.4217 36.0135 30.3351L36.2053 30.4227L36.192 30.3458L36.8221 30.0745C37.1377 29.6678 37.3458 29.1875 37.9889 28.7736C37.8825 28.9778 38.0574 28.9748 38.125 29.1178C37.8585 29.0794 37.6262 29.4417 37.283 29.6362C37.4682 29.5353 37.4629 29.6246 37.4329 29.6766C37.6048 29.4987 37.7928 29.3532 37.9771 29.194C38.0237 29.3133 38.1556 29.2047 38.3419 29.1621C38.0957 29.0085 38.7195 28.7681 38.9424 28.562C38.9967 28.628 38.9813 28.7346 38.6631 28.8857C39.0985 28.8715 38.9618 28.3884 39.3762 28.3506C39.3066 28.3912 39.2519 28.4058 39.2443 28.4591C39.3839 28.2973 39.8474 28.1145 39.7774 28.2358L39.7077 28.2764C40.2199 28.0294 41.2358 27.4497 41.2182 27.2201C41.2392 27.2438 41.2741 27.4833 41.2528 27.5403C41.4405 27.1752 41.6258 26.7742 41.8431 26.4378C41.8447 26.635 42.3447 26.889 41.9602 27.1751C42.0968 27.1385 42.2557 27.1032 42.4946 26.9294C42.3953 26.9413 42.1715 26.789 42.2785 26.7238C42.6839 26.7615 42.5427 26.7262 43.0141 26.7097C42.8738 26.7326 42.8889 26.4065 43.0951 26.3292C43.0788 26.3775 43.228 26.5791 43.1707 26.6384L43.5486 26.1638C43.444 26.265 43.6245 26.3924 43.7707 26.4191C43.6965 26.3877 44.2032 26.23 44.3202 26.1474L44.0806 26.1823C44.662 25.9753 44.4803 25.5701 45.0457 25.3307C44.9957 25.4173 45.0216 25.7325 45.3185 25.6383C45.3925 25.4501 45.6276 24.7429 46.0904 24.4213L46.218 24.4603L46.5812 24.2312C46.4076 24.512 45.8996 25.2117 45.6153 25.5441C45.8549 25.5092 45.7056 25.6078 46.0238 25.4567C46.1614 25.4784 45.8965 25.6372 45.8082 25.6901C46.0554 25.6019 46.304 25.4914 46.5635 25.4218C46.4649 25.2726 47.0737 25.0582 47.0047 24.9376C46.7535 25.0928 46.4899 25.2293 46.251 25.4031C46.1525 25.2538 46.5441 24.7755 47.0918 24.6068C47.2567 24.6212 47.0954 24.9206 47.1237 24.9716C47.1687 24.8937 47.5888 24.6859 47.6595 24.7036L47.4615 24.8664C47.778 24.8182 47.8701 24.4788 48.2805 24.5079C48.4035 24.475 48.7242 24.5793 48.7123 24.4801C48.4498 24.3747 48.2004 23.8266 48.2918 23.6484C48.3414 23.6424 49.0077 23.5883 49.185 23.6214C49.4365 23.6857 48.9969 24.067 49.2124 24.1337C49.2065 24.0841 49.3011 24.0002 49.3348 23.9619C49.4787 23.9526 49.3254 24.1181 49.6063 23.9916C49.5947 23.8117 50.1913 23.7982 49.689 23.8084C49.9489 23.6582 49.9981 23.7329 50.3187 23.6177C50.1838 23.5514 50.4944 23.1534 50.7629 23.0082C50.7603 23.0528 50.8345 23.0842 50.8829 23.1005C51.4739 22.9568 51.8064 22.9409 52.3528 22.7945C52.4184 22.8208 52.6889 22.7923 52.593 22.8985C52.6676 22.8492 52.7213 22.7763 52.8902 22.7237C53.2546 22.7725 52.52 22.8449 52.8185 22.9479C52.8065 22.8486 53.214 22.7028 53.4366 22.5773C53.323 22.454 52.8779 22.705 52.6553 22.8306C52.6004 22.6257 52.9516 22.2973 53.4997 22.0479C53.9359 21.8725 53.7326 22.1246 53.8072 22.0754C54.6701 21.8807 54.441 21.5175 55.1966 21.4688C55.5115 21.5235 55.2712 21.7197 55.3601 21.8057C55.0059 21.9591 54.7731 21.8824 54.5222 21.957L54.846 21.9361C54.7427 22.015 54.5042 22.1082 54.3516 22.1125C54.6167 22.1732 55.7909 21.7195 56.4892 21.7301C56.5961 21.6648 56.7937 21.5826 56.6885 21.5449L56.4786 21.6085C56.263 21.5418 56.8504 21.3844 56.5726 21.3856C56.8448 21.2541 57.1334 21.0743 57.5465 21.0588L57.655 21.1908C57.6354 21.1448 57.3749 21.156 57.2679 21.2213C57.4172 21.1227 57.9212 21.3098 58.0698 21.0723L57.7637 21.0225C58.0359 20.891 58.3631 20.6643 58.723 20.6411C58.5374 20.5224 58.6446 20.6767 58.3612 20.5477C58.6196 20.72 57.4463 20.7123 57.84 20.8703C57.5356 20.7176 57.3786 20.8695 56.9995 20.7661C57.0192 20.8121 57.1431 20.8375 56.8366 20.8683C56.8266 20.8857 56.7979 20.9153 56.7793 20.9276C56.7743 20.9363 56.7693 20.9449 56.7879 20.9326C56.8636 20.9416 56.9255 20.9543 56.9552 20.983C56.8255 21.1275 56.3587 21.216 56.2058 21.3009C56.0259 21.3125 56.2681 21.233 56.1629 21.1953L55.9439 21.3345C55.901 21.2288 55.4296 21.2453 55.8371 21.0996C55.7105 21.1188 55.5839 21.1381 55.4609 21.1711C55.2327 21.1663 54.9199 21.2282 54.7483 21.3254C54.572 21.3507 54.3354 21.5605 54.4637 21.4383L53.9033 21.669L53.896 21.6416C53.3186 21.7817 52.7638 22.1427 52.0568 22.1271C51.8729 22.2057 51.684 22.2929 51.3488 22.3534L51.2549 22.2761C51.0163 22.3693 50.478 22.3818 50.4153 22.5304C50.0749 22.38 49.2242 22.8934 48.7784 23.0056L48.7977 23.1322C48.5008 23.2264 48.2372 23.3629 47.8904 23.5436L47.952 23.6369C47.6757 23.8354 47.1237 23.8516 46.6242 24.0366C46.6406 23.9883 46.7685 23.9467 46.8715 23.9484C46.5317 23.937 46.2358 24.0895 45.9436 24.2556C45.6637 24.4404 45.4061 24.6266 45.1132 24.6538C44.9999 24.7501 44.9043 24.7757 44.8 24.7963C44.8137 24.7926 44.8187 24.784 44.8323 24.7803C44.8187 24.784 44.8 24.7963 44.7727 24.8036C44.7094 24.8133 44.6374 24.8179 44.5741 24.8275C44.6411 24.8316 44.6994 24.8306 44.754 24.8159C44.6571 24.8639 44.5091 24.9401 44.3735 25.035L44.2623 24.9477C44.2486 24.9514 44.2436 24.96 44.2299 24.9637C44.0674 24.9853 44.134 25.0699 44.2479 25.1126C44.1819 25.1669 44.1209 25.2125 44.0773 25.2681C43.8831 25.1445 43.7141 25.4972 43.4652 25.3882C43.4076 25.5281 42.7465 25.7931 42.7554 26.0176C42.7344 25.994 42.6935 26.0049 42.7718 25.9693C42.5942 26.0169 42.4203 26.0782 42.297 26.1917L42.1597 26.0894L41.8878 26.4405C41.6272 26.4517 41.5156 26.445 41.6803 26.2398C41.2394 26.6435 41.2921 26.5122 40.9418 26.8989L40.9162 26.8033C40.7633 26.8882 40.5823 27.1416 40.4447 27.1199C40.0179 27.1391 38.729 28.0116 37.7551 28.3384C38.0682 28.4961 37.2784 28.4442 37.3592 28.6641C37.2713 28.6364 37.126 28.668 37.2457 28.5408C36.8325 28.8565 36.5323 28.8564 36.3323 29.2028C36.2444 29.1751 36.3727 29.0529 36.3057 29.0489C36.277 29.0785 36.2034 29.1861 36.1364 29.1821C36.0685 29.1198 36.1681 29.0272 36.2168 28.9629C35.7826 29.2549 35.8462 29.4648 35.9197 29.6574C35.6429 29.717 35.5432 29.8095 35.4455 30.0187C35.3339 30.012 35.1664 30.0423 35.4289 29.8475C35.271 29.9411 34.4343 30.3702 34.5019 30.5131C34.4349 30.5091 34.2793 30.6387 34.2543 30.682C33.9011 30.8937 33.8601 30.9047 33.5329 31.1315L33.6385 31.0886C33.6101 31.3377 33.3746 31.3057 33.1257 31.4968L33.127 31.4745C32.4483 31.8101 32.9151 31.7216 32.229 32.0299L32.3279 32.0986C32.4248 32.3508 31.7202 32.3712 31.4359 32.7036L31.5948 32.6684C31.4612 32.8799 30.8625 32.7767 30.6536 32.8986C30.599 32.9132 30.6986 32.8207 30.7423 32.765C30.1582 33.0167 30.7725 32.9326 30.4313 33.2437C30.311 33.232 30.3827 33.0078 30.1301 33.1853C29.9662 33.2292 29.5872 33.9457 29.1501 34.0628C29.2667 34.0608 29.3746 34.0539 29.2436 34.2207C29.002 34.4392 28.4183 34.6103 28.3349 34.9547C28.2939 34.9657 28.2716 34.9643 28.2543 34.9543C28.1033 35.1559 27.6984 35.5572 27.6654 35.7344C27.2133 35.5773 26.6406 36.9094 26.3938 36.6168L25.8333 37.1477L25.8223 37.1067C25.4277 37.4101 25.376 37.5996 25.3243 37.7892C25.231 37.8508 25.2587 37.7628 25.2551 37.7492C24.7035 38.2044 24.6635 38.2737 24.3745 38.8343L24.2383 38.7903C24.1793 38.9525 23.3772 39.4016 22.9963 40.0015C22.9926 39.9879 22.9853 39.9605 23.0066 39.9036C22.5597 40.5577 21.4375 41.0414 21.6112 41.5805L21.3635 42.0495C21.8234 41.553 21.4494 42.2608 21.6833 42.0956C21.536 42.3108 21.1418 42.5335 21.3328 42.2627L21.3838 42.2344C21.2819 41.9909 20.7882 42.8259 20.6747 42.7026C19.8465 43.7371 18.8664 44.6146 18.1771 45.6485L18.4017 45.6396L18.1434 45.987C18.0451 46.0572 17.9348 46.0282 18.1244 45.7798C17.9455 45.8497 17.8941 46.2587 17.9237 46.2874C17.5111 46.742 17.8892 45.9672 17.7769 46.1218L17.6432 46.3333L17.6942 46.305C17.6411 46.5169 17.6868 46.5778 17.4671 46.8783C17.3002 47.0474 17.3082 46.9135 17.2459 46.9815C17.2372 46.9765 17.2136 46.9974 17.1586 47.0927L16.8366 47.5304L17.0802 47.4285C17.0071 47.675 16.7769 47.8538 17.0614 47.741C16.8552 47.8182 16.5395 48.2249 16.2512 48.6242C15.9803 49.0336 15.7712 49.4556 15.6766 49.5395C15.5932 49.884 15.4232 50.1784 15.2009 50.5235C15.2769 50.4519 15.4454 50.4799 15.2531 50.7731C15.0323 50.4955 14.7982 51.261 14.4454 51.3921C14.7139 51.247 13.9613 52.2905 14.3655 52.0504C14.1895 52.2952 14.2429 52.0027 14.0587 52.1619C13.7903 52.8268 13.239 53.5016 12.8993 54.31C12.9289 54.3387 13.0559 54.2388 13.0352 54.4346L12.6393 54.7603C12.5803 54.9226 12.8031 55.0166 12.5255 55.2374C12.5765 55.2091 12.6548 55.1734 12.6208 55.2924C12.1561 56.0172 11.7904 56.8106 11.463 57.6377C11.1666 58.4711 10.8528 59.2946 10.3509 60.044C10.5192 59.8525 10.4651 60.0061 10.4061 60.1683C10.4661 60.0644 10.5114 60.206 10.5697 60.205L10.16 60.8345C10.2659 61.0111 9.89628 61.5713 10.0098 61.6946L10.0679 61.4741C10.1321 61.8229 10.6123 61.2111 10.8202 61.3311C10.7414 60.9276 11.4337 60.5884 11.3547 59.9654C11.4456 59.8678 11.3876 60.0883 11.4659 60.0527C11.4133 59.8838 11.455 59.7115 11.615 59.4344L11.626 59.4754C11.9361 58.6383 12.1174 58.3042 12.5914 57.4232L12.4512 57.4461C12.5612 57.2556 12.6072 57.236 12.6881 57.1557C12.6299 56.8565 12.4141 57.6903 12.3323 57.4121C12.6778 57.2536 12.992 56.0494 13.3272 55.9889C13.4748 55.6931 13.1596 56.0191 13.3073 55.7234L13.4129 55.6804L13.3663 55.5611C13.4763 55.3706 13.6006 55.3153 13.6662 55.3417C13.6412 55.385 13.6172 55.4866 13.6008 55.5349C13.8014 55.3274 13.9129 54.8144 13.9802 54.7378L13.8029 55.0049C14.1266 54.1641 14.6766 53.2115 15.025 52.4081L14.9381 52.4387C15.1815 51.8171 15.2637 52.0147 15.5854 51.3575L15.5791 51.3885C15.6108 51.2336 15.6798 51.054 15.7884 50.8858C15.7454 51.0804 16.071 50.6564 16.0116 50.8992C16.2764 50.2207 16.1224 50.5475 16.1805 50.0268L16.3134 49.9765C16.3292 49.7893 16.2909 49.7556 16.4585 49.4252C16.3778 49.725 16.6948 49.296 16.62 49.6455C17.1596 49.0909 17.0775 48.5932 17.5159 48.4537C17.5104 48.0233 17.0177 48.9167 17.0831 48.7234C16.9165 48.812 17.0859 48.3786 17.2492 48.1958C17.3951 48.0029 17.7559 48.038 18.1042 47.5348C18.0656 47.5817 18.0779 47.6004 18.0479 47.6524C18.2358 47.5068 18.2346 47.229 18.4822 47.0602C18.4459 46.8429 18.6968 46.7684 18.5673 46.6128L18.2823 47.1064C18.4249 46.8193 18.4081 46.4285 18.8016 46.0668C18.8113 46.1301 18.7573 46.2837 18.7196 46.3889C18.8552 46.294 18.8609 46.1241 18.9965 46.0292C19.1261 46.1848 18.6342 46.6168 18.5631 46.9799C18.7297 46.8913 18.8239 46.3683 18.8934 46.6279C18.8119 46.269 19.2714 46.1532 19.3391 45.6959L19.423 45.7905C19.4494 45.7249 19.4761 45.5786 19.5534 45.4847L19.546 45.7576C19.6257 45.3994 20.0169 45.302 20.1682 45.0198C19.743 45.5364 19.956 45.0474 19.7084 45.2162C20.1111 44.4788 20.2612 45.0388 20.8078 44.2921C20.7428 44.4047 20.4479 44.6155 20.5355 44.4236C20.6638 44.3014 20.8518 44.1559 20.9711 44.1093C21.3453 43.621 20.8148 44.0999 20.9325 43.8561C21.1784 43.7902 21.0788 43.5826 21.2138 43.3488L21.3078 43.4261C21.8123 42.9322 21.2322 43.1169 21.7104 42.6886L21.6694 42.9998L21.843 42.719L21.9019 42.8569C22.0523 42.5165 22.1506 42.4462 22.3985 42.1968C22.2819 42.1987 22.2617 42.0138 22.46 41.7704C22.6552 41.6522 22.4679 41.9366 22.7399 41.5856C22.7319 41.7195 22.7361 41.8721 22.5349 41.9406C22.5545 41.9866 22.5319 42.0659 22.5428 42.1069C22.7518 41.985 22.9181 41.6769 23.0414 41.5633C22.9941 41.6053 22.9418 41.6559 22.9008 41.6669L23.2221 41.0903C23.3277 41.0474 23.2914 41.1303 23.2687 41.2096C23.351 41.107 23.3751 41.0054 23.496 40.8559C23.5303 40.9565 23.6119 41.0152 23.4596 41.239L23.7992 40.7307C23.8575 40.7297 24.1038 40.5832 24.0761 40.6712C24.3524 40.4727 24.5184 39.945 24.8793 39.68C24.8857 39.649 24.902 39.6007 24.9557 39.5277C25.2596 39.2413 25.6064 39.0606 25.8664 38.6102L26.1893 38.531C26.4362 38.2233 25.7658 38.6445 26.1861 38.1366C26.489 37.7919 26.4193 38.1327 26.5759 38.0614C26.6872 37.8486 26.8589 37.4512 27.2814 37.2794C27.1841 37.408 27.0871 37.4559 27.0048 37.5585ZM30.6235 34.3708C30.5648 34.4524 30.4648 34.6256 30.3632 34.6016C30.3639 34.4403 30.4719 34.4333 30.6235 34.3708ZM36.499 29.9341C36.459 30.0034 36.362 30.0513 36.2354 30.0706C36.3014 30.0163 36.3847 29.9721 36.499 29.9341ZM55.1864 21.2666L55.1814 21.2752C54.9568 21.2842 55.0375 21.2845 55.1864 21.2666ZM55.6245 21.2078C55.6618 21.1831 55.6582 21.1695 55.6322 21.1545C55.6122 21.1891 55.5079 21.2097 55.4036 21.2303C55.4469 21.2553 55.5052 21.2544 55.6245 21.2078ZM17.2642 47.0498L17.3388 47.0005C17.2475 47.1787 17.2602 47.1167 17.2642 47.0498Z" fill="#6E8058"/>
<path d="M35.8811 30.5243C35.8502 30.5179 35.8328 30.5079 35.8069 30.4929C35.7869 30.5276 35.7992 30.5462 35.8811 30.5243Z" fill="#6E8058"/>
<path d="M24.8966 39.69L24.8916 39.6986C24.8953 39.7123 24.8903 39.7209 24.899 39.7259L24.8966 39.69Z" fill="#6E8058"/>
<path d="M49.416 24.1011C49.3254 24.1181 49.2721 24.1104 49.2324 24.0991C49.2398 24.1264 49.2794 24.1377 49.416 24.1011Z" fill="#6E8058"/>
<path d="M57.8761 20.5678L57.6066 20.6547C57.7382 20.6268 57.7915 20.6344 57.8671 20.6435C57.8511 20.6111 57.7855 20.5848 57.8761 20.5678Z" fill="#6E8058"/>
<path d="M60.4003 20.8358C60.4376 20.8112 60.4823 20.8139 60.5282 20.7942L60.5136 20.7396C60.341 20.7785 60.2204 20.8474 60.4003 20.8358Z" fill="#6E8058"/>
<path d="M58.2095 20.9104C58.2488 21.0024 58.414 20.9361 58.6053 20.8849L58.5693 20.8872C58.6097 20.7373 58.4121 20.8195 58.2095 20.9104Z" fill="#6E8058"/>
<path d="M58.6513 20.8652C58.7059 20.8506 58.7742 20.8323 58.8325 20.8313C58.8452 20.7694 58.7519 20.831 58.6513 20.8652Z" fill="#6E8058"/>
<path d="M56.1636 21.034C56.2615 21.0444 56.1939 20.9014 56.2509 20.9228C56.3222 20.7792 55.6655 21.1968 56.1636 21.034Z" fill="#6E8058"/>
<path d="M58.4289 21.2103L58.3327 21.097L58.249 21.2219L58.4289 21.2103Z" fill="#6E8058"/>
<path d="M56.8937 21.4094L57.2089 21.3835C57.1966 21.3648 57.2339 21.3402 57.2885 21.3256C57.085 21.3581 56.8777 21.3771 56.8937 21.4094Z" fill="#6E8058"/>
<path d="M57.2749 21.3292C57.3742 21.3173 57.4698 21.2916 57.5208 21.2633C57.4711 21.2693 57.3532 21.2936 57.2749 21.3292Z" fill="#6E8058"/>
<path d="M58.0141 21.3288L57.9162 21.3184L57.704 21.346L58.0141 21.3288Z" fill="#6E8058"/>
<path d="M53.6083 22.1799L53.2828 22.3037C53.2664 22.352 53.3557 22.3574 53.48 22.3021C53.5496 22.2615 53.6689 22.2149 53.6083 22.1799Z" fill="#6E8058"/>
<path d="M54.6933 22.2405C54.5991 22.2438 54.5831 22.2115 54.5261 22.1902L54.5527 22.3441L54.6933 22.2405Z" fill="#6E8058"/>
<path d="M53.7344 22.5414C53.7181 22.5897 53.2893 22.7924 53.7041 22.674C53.7254 22.617 54.051 22.4932 53.7344 22.5414Z" fill="#6E8058"/>
<path d="M48.7758 23.8701L48.8577 23.8481L48.7645 23.6096L48.7758 23.8701Z" fill="#6E8058"/>
<path d="M44.7943 26.0862C45.1818 25.9751 44.8187 25.904 45.1775 25.8225C45.2411 25.7322 44.887 25.8857 44.9506 25.7954C44.7613 25.9633 44.6261 25.9776 44.7943 26.0862Z" fill="#6E8058"/>
<path d="M44.9543 25.8091C44.9779 25.7881 45.0153 25.7635 45.0489 25.7252C44.9929 25.7622 44.9693 25.7831 44.9543 25.8091Z" fill="#6E8058"/>
<path d="M9.86174 61.2512L9.71808 61.48L9.85638 61.3404L9.86174 61.2512Z" fill="#6E8058"/>
<path d="M9.8569 61.7796L9.682 61.7825L9.76422 61.9801C9.78556 61.9231 9.80592 61.8079 9.8569 61.7796Z" fill="#6E8058"/>
<path d="M31.3994 34.2067L31.3885 34.1658C31.3352 34.1581 31.2842 34.1864 31.1859 34.2567L31.3994 34.2067Z" fill="#6E8058"/>
<path d="M28.6166 36.3067L28.664 36.2648L28.4867 36.2317L28.6166 36.3067Z" fill="#6E8058"/>
<path d="M26.5435 38.3776C26.6331 38.3023 26.7204 38.191 26.8151 38.1071C26.6331 38.3023 26.3889 38.2652 26.5435 38.3776Z" fill="#6E8058"/>
<path d="M16.3366 58.5491C16.3596 58.5298 16.28 58.4661 16.2672 58.4508C16.2482 58.5059 16.3495 58.5644 16.3366 58.5491Z" fill="#6E8058"/>
<path d="M16.1388 59.1068L16.1131 59.0761L16.1443 59.2066L16.1388 59.1068Z" fill="#6E8058"/>
<path d="M15.7931 59.4882C15.956 59.5734 15.8989 59.3342 16.0076 59.3082L16.0486 59.326L15.9675 59.1982C15.9166 59.2932 15.8878 59.461 15.7931 59.4882Z" fill="#6E8058"/>
<path d="M15.323 59.4258C15.391 59.4601 15.3297 59.5115 15.383 59.3884L15.3625 59.3795C15.3536 59.4001 15.3524 59.4141 15.323 59.4258Z" fill="#6E8058"/>
<path d="M15.3613 59.3936C15.4008 59.3474 15.2985 59.3811 15.3613 59.3936Z" fill="#6E8058"/>
<path d="M15.2224 59.6015L15.2234 59.5093C15.1824 59.4916 15.1364 59.5301 15.1325 59.4943C15.111 59.5776 15.1456 59.5877 15.2224 59.6015Z" fill="#6E8058"/>
<path d="M15.2741 59.7409L15.2778 59.6987C15.2714 59.691 15.2573 59.6898 15.2741 59.7409Z" fill="#6E8058"/>
<path d="M15.3005 59.6013L15.2919 59.6999C15.3189 59.7164 15.3587 59.7483 15.302 59.6653C15.3278 59.6959 15.3033 59.6512 15.3005 59.6013Z" fill="#6E8058"/>
<path d="M15.344 59.5909C15.394 59.5882 15.4528 59.5649 15.4518 59.6571C15.5257 59.5429 15.4115 59.469 15.344 59.5909Z" fill="#6E8058"/>
<path d="M15.9152 59.6337L15.9869 59.6258L15.9726 59.5465C15.9829 59.59 15.869 59.5942 15.9152 59.6337Z" fill="#6E8058"/>
<path d="M14.8584 59.8678C14.8842 59.8984 14.9534 59.9187 14.9867 59.9429L14.9929 59.8725C14.9571 59.8764 14.9047 59.9073 14.8584 59.8678Z" fill="#6E8058"/>
<path d="M14.9932 59.9506L14.991 60.0568C15.0382 60.0042 15.0265 59.9748 14.9932 59.9506Z" fill="#6E8058"/>
<path d="M15.418 59.8813L15.4059 59.6956L15.4015 59.9082L15.418 59.8813Z" fill="#6E8058"/>
<path d="M14.662 60.0848L14.6207 59.989L14.6712 60.1424L14.662 60.0848Z" fill="#6E8058"/>
<path d="M14.5345 60.244C14.4984 60.1699 14.4114 60.1907 14.4022 60.1331C14.3768 60.1806 14.3912 60.2599 14.4067 60.3251C14.4181 60.2764 14.4487 60.2507 14.5345 60.244Z" fill="#6E8058"/>
<path d="M14.4186 60.4327C14.4211 60.4045 14.4171 60.3687 14.4067 60.3252C14.4043 60.3533 14.4082 60.3892 14.4186 60.4327Z" fill="#6E8058"/>
<path d="M14.8849 60.1328C14.8644 60.1239 14.8105 60.0908 14.7594 60.1076L14.8543 60.1585L14.8849 60.1328Z" fill="#6E8058"/>
<path d="M14.8926 60.1263C14.8914 60.1404 14.899 60.134 14.8926 60.1263Z" fill="#6E8058"/>
<path d="M15.2045 59.9691C15.2188 60.0484 15.2026 60.1534 15.3306 60.1504C15.2945 60.0763 15.2228 60.0842 15.2045 59.9691Z" fill="#6E8058"/>
<path d="M15.0145 60.1938L15.0898 60.1436C15.0629 60.127 15.0219 60.1093 15.0179 60.0734L15.0145 60.1938Z" fill="#6E8058"/>
<path d="M15.0172 60.2437L15.0145 60.1938L14.9851 60.2054L15.0172 60.2437Z" fill="#6E8058"/>
<path d="M14.585 60.3975C14.5941 60.4551 14.5699 60.4885 14.5457 60.5219C14.5904 60.4974 14.6352 60.4729 14.667 60.4331C14.6542 60.4178 14.6168 60.3577 14.585 60.3975Z" fill="#6E8058"/>
<path d="M14.7293 60.2895C14.7421 60.3048 14.7498 60.2984 14.7293 60.2895Z" fill="#6E8058"/>
<path d="M14.2613 60.8519L14.2754 60.8531L14.2625 60.8378L14.2613 60.8519Z" fill="#6E8058"/>
<path d="M14.694 60.4497C14.7375 60.4393 14.7335 60.4034 14.7155 60.3664C14.6989 60.3933 14.69 60.4138 14.6735 60.4408C14.6863 60.4561 14.6927 60.4637 14.694 60.4497Z" fill="#6E8058"/>
<path d="M14.3794 60.557C14.4075 60.5595 14.4357 60.5619 14.4651 60.5503C14.4229 60.5466 14.3601 60.534 14.3794 60.557Z" fill="#6E8058"/>
<path d="M14.7011 60.287C14.6806 60.2781 14.6742 60.2705 14.7011 60.287Z" fill="#6E8058"/>
<path d="M14.7011 60.287C14.6986 60.3152 14.7103 60.3446 14.7155 60.3663C14.7243 60.3458 14.7268 60.3177 14.728 60.3036C14.7216 60.2959 14.7152 60.2882 14.7011 60.287Z" fill="#6E8058"/>
<path d="M14.6742 61.4062C14.6022 61.336 14.5992 61.208 14.7337 61.2126C14.7359 61.1063 14.4536 60.9255 14.2754 60.8531C14.3011 60.8838 14.3345 60.908 14.3258 61.0066C14.3886 61.0192 14.5433 60.9546 14.5616 61.0698C14.53 61.1877 14.4798 61.1123 14.4017 61.1126C14.5248 61.166 14.446 61.3365 14.5859 61.441L14.6035 61.3219C14.6292 61.3525 14.6383 61.4101 14.6742 61.4062Z" fill="#6E8058"/>
<path d="M14.3915 60.7426L14.4016 60.708C14.3646 60.7261 14.3159 60.7147 14.2249 60.6997C14.2252 60.7778 14.2368 60.8072 14.2625 60.8378L14.3863 60.7209L14.3915 60.7426Z" fill="#6E8058"/>
<path d="M14.5101 60.6039C14.5732 60.6946 14.5504 60.792 14.6748 60.8313C14.7385 60.7517 14.6565 60.7161 14.6626 60.6457C14.5799 60.7804 14.6483 60.5663 14.523 60.6193C14.5331 60.5847 14.5497 60.5577 14.5585 60.5372C14.5291 60.5488 14.4997 60.5604 14.4639 60.5644L14.4703 60.5721C14.4844 60.5733 14.4908 60.581 14.4767 60.5797L14.5101 60.6039C14.459 60.6208 14.4832 60.5874 14.4844 60.5733L14.4716 60.558L14.4081 60.7157C14.4375 60.7041 14.4694 60.6642 14.5101 60.6039Z" fill="#6E8058"/>
<path d="M15.4465 60.3664C15.4325 60.3652 15.426 60.3575 15.426 60.3575C15.4248 60.3716 15.4312 60.3793 15.4465 60.3664Z" fill="#6E8058"/>
<path d="M15.3531 60.3796C15.3479 60.3578 15.3222 60.3272 15.3593 60.3091C15.4092 60.3064 15.3991 60.341 15.4248 60.3716C15.4208 60.3358 15.4206 60.2577 15.3336 60.2785L15.3388 60.3002C15.2659 60.3222 15.1121 60.2946 15.1069 60.2728C15.189 60.3084 15.257 60.3428 15.3531 60.3796Z" fill="#6E8058"/>
<path d="M14.9515 60.5077L14.8969 60.6448L15.0096 60.6547L14.9634 60.6152C15.0375 60.5791 14.9696 60.5447 14.9515 60.5077Z" fill="#6E8058"/>
<path d="M14.2074 60.8188L14.1367 60.7345L14.2077 60.8969L14.2074 60.8188Z" fill="#6E8058"/>
<path d="M14.1029 60.9587L14.0309 60.8885L14.0453 60.9678L14.1029 60.9587Z" fill="#6E8058"/>
<path d="M8.15873 66.4294L8.12017 66.3835C8.13179 66.4129 8.14464 66.4282 8.15873 66.4294Z" fill="#6E8058"/>
<path d="M8.24609 66.8913L8.28439 66.8592C8.25621 66.8567 8.24089 66.8696 8.24609 66.8913Z" fill="#6E8058"/>
<path d="M11.243 64.1156C11.138 64.0993 10.9867 64.0435 11.0727 64.1149L11.1664 64.1799C11.1777 64.1312 11.2072 64.1195 11.243 64.1156Z" fill="#6E8058"/>
<path d="M9.74358 66.7313L9.76287 66.7543C9.7678 66.698 9.76507 66.648 9.76234 66.5981C9.75864 66.6404 9.75494 66.6826 9.74358 66.7313Z" fill="#6E8058"/>
<path d="M9.79686 67.3393L9.71233 67.3319C9.72519 67.3473 9.75336 67.3497 9.79686 67.3393Z" fill="#6E8058"/>
<path d="M7.68676 64.6846L7.56762 64.6671C7.58321 64.7323 7.62917 64.6937 7.68676 64.6846Z" fill="#6E8058"/>
<path d="M12.9346 62.3045C12.8706 62.306 12.8259 62.3305 12.8029 62.3497C12.8887 62.343 12.9925 62.3734 12.9346 62.3045Z" fill="#6E8058"/>
<path d="M9.19616 65.7678C9.17441 65.773 9.15908 65.7858 9.1361 65.8051C9.15785 65.7999 9.17317 65.7871 9.19616 65.7678Z" fill="#6E8058"/>
<path d="M12.7085 62.4551C12.7226 62.4563 12.7303 62.4499 12.7443 62.4511C12.7545 62.4165 12.7723 62.3755 12.8029 62.3497C12.7389 62.3512 12.6877 62.3681 12.7085 62.4551Z" fill="#6E8058"/>
<path d="M6.65138 59.1569C6.65904 59.1504 6.65904 59.1504 6.66027 59.1364C6.65261 59.1428 6.64495 59.1492 6.65138 59.1569Z" fill="#6E8058"/>
<path d="M7.40702 57.3349C7.41988 57.3502 7.42507 57.372 7.43027 57.3937C7.42384 57.3861 7.41864 57.3643 7.40702 57.3349Z" fill="#6E8058"/>
<path d="M13.5988 61.4469C13.623 61.4136 13.5859 61.4316 13.5988 61.4469Z" fill="#6E8058"/>
<path d="M14.0321 61.6055C14.0309 61.6196 14.0437 61.6349 14.0566 61.6503C14.0514 61.6285 14.0385 61.6132 14.0321 61.6055Z" fill="#6E8058"/>
<path d="M12.9645 63.1802C12.985 63.1891 12.9786 63.1814 12.9645 63.1802Z" fill="#6E8058"/>
<path d="M13.6705 61.439C13.6487 61.4442 13.6346 61.443 13.6129 61.4482C13.627 61.4494 13.6411 61.4506 13.6705 61.439Z" fill="#6E8058"/>
<path d="M13.6307 61.4072C13.6383 61.4007 13.646 61.3943 13.6601 61.3955C13.6472 61.3802 13.6408 61.3725 13.6307 61.4072Z" fill="#6E8058"/>
<path d="M13.5669 61.4867C13.5822 61.4739 13.5976 61.461 13.6129 61.4482C13.5988 61.4469 13.5924 61.4393 13.5924 61.4393C13.5911 61.4534 13.5758 61.4662 13.5669 61.4867Z" fill="#6E8058"/>
<path d="M7.54082 62.0526L7.54849 62.0462C7.4946 62.0131 7.50745 62.0284 7.54082 62.0526Z" fill="#6E8058"/>
<path d="M11.3996 65.7334C11.3402 65.6005 11.3696 65.5889 11.4208 65.572L11.159 65.4001L11.3996 65.7334Z" fill="#6E8058"/>
<path d="M7.94696 65.5236L7.87309 65.6378C7.69487 65.5655 7.73167 65.4693 7.61553 65.5798C7.95462 65.5172 7.72041 65.9226 8.06742 65.9317L8.01406 66.0548C8.01653 66.0266 7.98835 66.0241 7.99082 65.9959C7.87521 66.2627 8.25603 66.0475 8.24916 66.2883C8.24053 66.3869 8.20496 66.469 8.16516 66.4371L8.27443 66.5673C8.28359 66.6249 8.22355 66.6622 8.22205 66.5982L8.30614 66.854L8.29848 66.8604C8.35607 66.8513 8.4406 66.8587 8.46877 66.8611C8.44483 66.9726 8.43293 66.8651 8.40625 66.9266L8.50118 66.9775C8.43769 67.1353 8.34797 67.1061 8.33731 66.9845C8.09447 67.4885 8.42704 67.0137 8.34313 67.5671L8.28131 67.4623C8.15188 67.8059 8.24038 67.8491 8.18658 68.2206C8.22189 68.0604 8.3337 67.4314 8.43382 67.504C8.42642 67.5885 8.42669 67.6666 8.49837 67.6587C8.4119 67.8357 8.45047 67.8817 8.47644 67.9904L8.36207 68.243C8.42758 68.3055 8.47574 68.1607 8.53703 68.1093C8.55165 68.2667 8.47953 68.523 8.42398 68.7524C8.45568 69.0391 8.51951 68.2284 8.59321 68.4407C8.59004 68.6392 8.62614 68.7133 8.6736 68.7388C8.72326 68.6579 8.77539 68.5489 8.84283 68.4271C8.89795 68.4461 8.77442 68.6411 8.78358 68.6987L8.91944 68.3628C8.93476 68.3499 8.91327 68.4332 8.89549 68.4742C8.98072 68.3113 8.9661 68.1539 9.07432 67.9717C9.14616 67.6373 9.18659 68.23 9.35652 67.748C9.381 67.7927 9.32641 67.9299 9.32544 68.0221C9.50207 67.6259 9.48825 67.7027 9.60086 67.308C9.63547 67.3181 9.6765 67.3359 9.7111 67.346C9.61865 67.267 9.70977 66.9555 9.75001 66.739C9.7191 66.6866 9.69463 66.6419 9.683 66.6125L9.75019 66.4125C9.76947 66.4355 9.7774 66.5072 9.76877 66.6058L9.77493 66.5353C9.82116 66.5749 9.83181 66.6965 9.82715 66.8309C9.80786 66.8079 9.78215 66.7773 9.76287 66.7543C9.75697 66.9029 9.74861 67.0796 9.76692 67.1948C9.77705 67.1602 9.78718 67.1255 9.7973 67.0909C9.7936 67.1332 9.79757 67.169 9.79633 67.1831C9.80919 67.1985 9.81412 67.1421 9.82794 67.0652L9.90411 67.2493L9.89099 67.1559C9.9639 67.1339 10.0445 67.1055 10.1186 67.0694C10.1993 66.7144 10.1585 66.3701 10.2551 66.1586C10.3068 66.2979 10.3901 66.3194 10.5082 66.4291C10.3429 66.3721 10.3963 66.6536 10.2597 66.7552C10.3274 66.7114 10.3494 66.7843 10.3457 66.8266C10.385 66.7023 10.4307 66.5856 10.461 66.4818C10.5446 66.5814 10.5725 66.5057 10.6595 66.485C10.4516 66.3461 10.637 66.2558 10.6392 66.1496C10.7059 66.198 10.7561 66.2734 10.6731 66.33C10.8896 66.3702 10.5504 66.0282 10.74 66.0519C10.7311 66.0724 10.7029 66.07 10.735 66.1083C10.7219 66.0148 10.8549 65.9555 10.891 66.0296L10.8757 66.0425C11.0123 65.9409 11.2125 65.6816 11.071 65.513C11.098 65.5296 11.2458 65.7058 11.2715 65.7364L10.935 65.0398C11.0507 65.1776 11.4356 65.403 11.4208 65.572C11.4643 65.5616 11.5154 65.5448 11.5317 65.4398C11.4959 65.4437 11.2944 65.3125 11.3046 65.2779C11.5263 65.3399 11.4301 65.3031 11.6414 65.3216C11.5915 65.3243 11.4051 65.1022 11.4511 65.0636C11.4768 65.0943 11.6617 65.2524 11.6657 65.2882L11.5647 64.9813C11.5803 65.0465 11.742 65.1459 11.8176 65.1738C11.7702 65.1483 11.9108 65.0825 11.9157 65.0262L11.8235 65.0252C11.9743 64.9248 11.6455 64.6263 11.7834 64.5106C11.8143 64.563 12.0148 64.7864 12.0966 64.7439C12.0155 64.6161 11.7091 64.1421 11.7328 63.9526L11.8149 63.9881L11.8284 63.8332C11.9392 64.0274 12.1328 64.4915 12.1925 64.7026C12.2847 64.7036 12.2733 64.7523 12.337 64.6727C12.4127 64.7006 12.3835 64.7903 12.367 64.8172L12.5637 64.6783C12.4314 64.5673 12.5565 64.4363 12.4435 64.3484L12.4099 64.6506C12.2841 64.5474 12.1563 64.2239 12.2929 64.1222C12.3698 64.1361 12.4934 64.3456 12.5396 64.3852C12.5087 64.3328 12.5633 64.1956 12.6044 64.2134L12.6227 64.3285C12.7314 64.3026 12.5603 64.0676 12.7499 64.0912C12.787 64.0732 12.9857 64.1545 12.9138 64.0843C12.7291 64.0042 12.2809 63.6101 12.1998 63.4824C12.2139 63.4836 12.4712 63.4635 12.5686 63.4862C12.7199 63.5421 12.7758 63.7954 12.9066 63.8423C12.8744 63.804 12.8512 63.7452 12.846 63.7234C12.8959 63.7207 12.936 63.8307 12.9856 63.7499C12.8687 63.6261 13.1171 63.6265 12.9045 63.6221C12.9272 63.5247 12.9863 63.5796 13.0501 63.5C12.9475 63.4555 12.8365 63.1832 12.8515 63.0922C12.8772 63.1229 12.9388 63.1495 12.9593 63.1584C13.0831 63.0415 13.2123 63.0244 13.3144 62.9127C13.3554 62.9304 13.4424 62.9097 13.4785 62.9838C13.4746 62.948 13.4437 62.8956 13.4755 62.8558C13.6434 62.8847 13.417 62.9571 13.5964 63.0154C13.5245 62.9452 13.5843 62.8298 13.5852 62.7376C13.4582 62.6484 13.4486 62.8392 13.4476 62.9314C13.2897 62.7898 13.2108 62.5558 13.2562 62.361C13.3108 62.2238 13.401 62.4092 13.383 62.3721C13.5745 62.2114 13.2549 61.9705 13.5082 61.9146C13.6619 61.9422 13.706 62.0881 13.7932 62.1454C13.7616 62.2633 13.6168 62.2151 13.5696 62.2678L13.6783 62.2418C13.6875 62.2994 13.6596 62.375 13.6096 62.3777C13.7416 62.4106 13.9121 62.0848 14.1244 62.0111C14.1152 61.9535 14.1214 61.8831 14.0663 61.864L14.0396 61.9256C13.9217 61.894 14.0057 61.7452 13.9187 61.766C13.9145 61.652 13.8922 61.501 14.0162 61.4622L14.1433 61.5514C14.1099 61.5272 14.0229 61.5479 14.0398 61.5991C14.0254 61.5198 14.3087 61.6084 14.2031 61.4359L14.0763 61.4248C14.0721 61.3109 14.0241 61.1293 14.1276 61.0815C13.984 61.0193 14.1252 61.1097 13.9393 61.0438C14.1432 61.1468 13.7594 61.2339 13.994 61.3112C13.7952 61.2299 13.8417 61.3475 13.647 61.3021C13.6868 61.334 13.7431 61.3389 13.6677 61.3891C13.6806 61.4044 13.6794 61.4185 13.6922 61.4338L13.6846 61.4403L13.6986 61.4415C13.7051 61.4492 13.7051 61.4492 13.6986 61.4415C13.7268 61.444 13.755 61.4464 13.7819 61.463C13.8361 61.5742 13.7494 61.6731 13.7573 61.7447C13.7061 61.7616 13.7264 61.6923 13.6713 61.6733L13.6896 61.7885C13.6035 61.7171 13.4577 61.7611 13.4906 61.6291L13.4127 61.7075C13.327 61.7142 13.2452 61.7567 13.2454 61.8348C13.1943 61.8516 13.2512 62.0128 13.2163 61.9245L13.1516 62.0963L13.1246 62.0798C13.0008 62.1967 13.0273 62.4617 12.7572 62.4664C12.7446 62.5292 12.7244 62.5984 12.6426 62.6409L12.5617 62.5913C12.5338 62.6669 12.3405 62.6855 12.3959 62.7826C12.151 62.6618 12.1137 63.0064 11.9949 63.0669L12.0861 63.1601C12.0171 63.218 11.988 63.3077 11.9564 63.4256L12.0424 63.497C12.0454 63.625 11.8188 63.6194 11.7231 63.7388C11.6974 63.7081 11.7281 63.6824 11.7639 63.6785C11.4552 63.6373 11.6436 64.0796 11.4029 64.0728C11.4121 64.1304 11.3826 64.142 11.3327 64.1447L11.334 64.1306C11.334 64.1306 11.3263 64.137 11.3186 64.1435C11.2905 64.141 11.2623 64.1385 11.2405 64.1437C11.2687 64.1462 11.2969 64.1487 11.311 64.1499C11.2944 64.1768 11.2766 64.2179 11.2576 64.273L11.1498 64.2068C11.1498 64.2068 11.1498 64.2068 11.1422 64.2132C11.0782 64.2147 11.1578 64.2785 11.2463 64.3217C11.2438 64.3499 11.2478 64.3857 11.2594 64.4151C11.0913 64.3081 11.2265 64.5471 11.0367 64.4453C11.0856 64.5348 10.9389 64.671 11.0815 64.8254C11.0546 64.8089 11.0405 64.8077 11.0558 64.7948C11.0046 64.8116 10.9523 64.8425 10.9602 64.9142L10.8331 64.825L10.9132 65.045C10.8005 65.0351 10.7378 65.0225 10.7002 64.8844C10.7215 65.1276 10.6661 65.0304 10.6963 65.2531L10.6244 65.1829C10.5925 65.2227 10.6365 65.3686 10.5609 65.3406C10.352 65.294 10.164 65.7389 9.85954 65.8116C10.0842 66.0016 9.72878 65.7647 9.87662 65.9409C9.82397 65.8937 9.7906 65.8695 9.76735 65.8107C9.75749 65.9234 9.66477 65.7662 9.70906 65.9901C9.67939 65.9236 9.67666 65.8737 9.6586 65.8366C9.6638 65.8584 9.67296 65.916 9.64848 65.8713C9.63043 65.8342 9.63289 65.806 9.6225 65.7625C9.60472 65.8035 9.66063 66.0569 9.71012 66.3025C9.64584 66.2259 9.64338 66.2541 9.64021 66.4526C9.61819 66.3797 9.59618 66.3068 9.62409 66.2311C9.59468 66.2427 9.51139 66.2213 9.49686 66.4684C9.4877 66.4108 9.46745 66.48 9.46375 66.5223C9.41013 66.5673 9.4126 66.5391 9.35528 66.6264L9.3669 66.6558C9.29259 67.0184 9.30588 66.7853 9.25499 66.8802L9.26511 66.8456C9.22998 66.6793 9.18631 67.0162 9.17416 66.8306L9.17785 66.7883L9.11217 67.0523C8.95386 67.5637 9.17979 66.6039 9.09825 66.7246L9.06294 66.8847C8.9903 66.9848 9.27039 66.1363 9.28941 66.0812C9.30719 66.0401 9.31485 66.0337 9.3314 66.0068C9.4213 65.7094 9.22469 66.253 9.18243 66.2493C9.23702 66.1121 9.33757 65.9363 9.34893 65.8876C9.39859 65.8068 9.12704 66.1521 9.23375 65.9059C9.18409 65.9868 9.14086 66.0753 9.0897 66.0921C9.0588 66.0397 9.27549 65.7534 9.08768 65.8719C9.09657 65.8514 9.11189 65.8385 9.12721 65.8256C9.07729 65.8284 9.02586 65.7671 8.91835 65.779C9.10617 65.6605 9.04981 65.6556 8.97787 65.5854C8.90717 65.5012 8.8288 65.4233 9.01688 65.383L8.95726 65.1719L8.9931 65.168C8.99134 65.0259 8.88752 64.9955 8.79014 64.9728C8.80792 64.9317 8.84896 64.9495 8.86305 64.9508C8.89563 64.7407 8.87634 64.7177 8.65313 64.5917L8.77076 64.5452C8.69513 64.5173 8.90539 64.2234 8.72171 64.0511C8.7358 64.0524 8.75755 64.0472 8.78449 64.0637C8.59562 63.8698 9.01421 63.4663 8.55846 63.4832L8.41978 63.3646C8.42427 63.5566 8.22007 63.3755 8.16275 63.4628C8.11899 63.3951 8.25291 63.2435 8.30187 63.333L8.27889 63.3523C8.51443 63.3374 8.31517 63.0999 8.46618 63.0776C8.38428 62.7156 8.43931 62.33 8.37027 61.9832L8.20024 62.0606L8.18959 61.939C8.22146 61.8992 8.32378 61.8656 8.33047 61.9514C8.42117 61.8883 8.21354 61.8276 8.1777 61.8315C8.2219 61.6509 8.40311 61.8513 8.39272 61.8078L8.36305 61.7413L8.34007 61.7606C8.25158 61.7173 8.17224 61.7317 8.16036 61.6242C8.18061 61.555 8.26514 61.5624 8.25994 61.5406C8.27403 61.5418 8.27526 61.5277 8.25598 61.5048L8.27966 61.3152L8.15066 61.4104C8.06983 61.3607 8.13482 61.267 7.98407 61.3674C8.21019 61.2168 7.95651 60.7901 8.02025 60.7105C7.89839 60.643 7.87884 60.5419 7.87461 60.428C7.8504 60.4614 7.69693 60.5118 7.69147 60.412C8.02809 60.3775 7.80214 60.2016 8.01937 60.0715C7.87505 60.1796 7.92242 59.8004 7.72448 59.9535C7.73187 59.8689 7.84731 59.9287 7.91106 59.8491C7.74147 59.6781 7.90824 59.3946 7.81525 59.1593C7.77175 59.1697 7.71047 59.2211 7.63606 59.1791L7.82881 59.0044C7.79667 58.9661 7.57275 59.0104 7.70421 58.887C7.66714 58.905 7.61475 58.936 7.60313 58.9065C7.71918 58.3914 7.23119 57.9654 7.52889 57.4024C7.45748 57.4884 7.44066 57.4372 7.43027 57.3937C7.42014 57.4283 7.32152 57.4197 7.26394 57.4289L7.38351 57.198C7.21322 57.1973 7.33156 56.9805 7.17412 56.9951L7.21146 57.0552C7.01026 57.0021 6.83187 57.2562 6.58744 57.2916C6.81681 57.3472 6.33244 57.61 6.65797 57.7024C6.61843 57.7486 6.5811 57.6885 6.52871 57.7194C6.63376 57.7357 6.67232 57.7817 6.64195 57.8855L6.61377 57.883C6.69143 58.1312 6.6099 58.2518 6.5981 58.5489L6.70808 58.5088C6.70958 58.5728 6.67251 58.5909 6.64829 58.6243C6.83664 58.662 6.62082 58.4515 6.82448 58.4764C6.60726 58.6065 6.90787 58.9025 6.64962 59.0148C6.66274 59.1082 6.77491 58.9618 6.7957 59.0488L6.72799 59.0926L6.82661 59.1012C6.8281 59.1652 6.73864 59.2142 6.6734 59.2298C6.67463 59.2157 6.64125 59.1915 6.64249 59.1774C6.56984 59.2775 6.71619 59.3897 6.69198 59.4231L6.71469 59.3257C6.83586 59.5634 6.79985 59.8939 6.99391 60.1096L7.04631 60.0787C7.18772 60.2472 7.011 60.2389 7.10768 60.4319L7.09359 60.4306C7.15514 60.4573 7.20014 60.5109 7.19521 60.5673C7.1208 60.5253 7.09192 60.6931 7.00466 60.6358C7.1525 60.812 7.11121 60.7161 7.34455 60.8075L7.28449 60.8448C7.37422 60.874 7.42415 60.8712 7.46544 60.9671C7.37175 60.9022 7.33645 61.0623 7.22224 60.9884C7.07203 61.245 7.48182 61.2667 7.21987 61.4212C7.49274 61.4664 7.32412 61.2032 7.39086 61.2516C7.46747 61.1873 7.59329 61.2906 7.57947 61.3675C7.5874 61.4392 7.27922 61.5542 7.31435 61.7205C7.31559 61.7064 7.28741 61.704 7.28864 61.6899C7.23898 61.7707 7.40681 61.7996 7.31242 61.9049C7.46739 61.9184 7.3243 62.0124 7.51881 61.9797L7.44661 61.8315C7.51731 61.9157 7.75559 61.9508 7.67678 62.1213C7.63452 62.1176 7.58062 62.0845 7.53316 62.0591C7.48597 62.1117 7.58336 62.1344 7.53616 62.1871C7.33523 62.2121 7.45999 62.003 7.2882 61.9383C7.2116 62.0025 7.46669 62.0887 7.24647 62.0908C7.52947 62.1013 7.25219 62.2687 7.47268 62.3448L7.3575 62.3631C7.38445 62.3797 7.446 62.4063 7.44996 62.4422L7.28213 62.4133C7.43217 62.4832 7.20729 62.6197 7.29332 62.6911C7.25299 62.503 7.42751 62.6177 7.49249 62.524C7.70188 62.7268 7.21275 62.7195 7.32502 62.9778C7.29931 62.9472 7.36676 62.8253 7.4335 62.8737C7.41448 62.9288 7.38657 63.0045 7.33295 63.0495C7.39626 63.2183 7.44416 62.9953 7.53784 63.0603C7.40242 63.1478 7.60978 63.1305 7.67406 63.2071L7.55123 63.2318C7.51865 63.4419 7.81371 63.2335 7.75419 63.427L7.57351 63.3828L7.63013 63.4659L7.49444 63.4753C7.61507 63.5568 7.59086 63.5902 7.58099 63.7029C7.66279 63.6604 7.80368 63.6727 7.82446 63.7597C7.76837 63.8329 7.71175 63.7498 7.74416 63.8662C7.66729 63.8524 7.56867 63.8438 7.6606 63.7667C7.62476 63.7706 7.58373 63.7528 7.54789 63.7568C7.48414 63.8364 7.56128 63.9283 7.57167 63.9718C7.5729 63.9577 7.57536 63.9296 7.59069 63.9167L7.79092 64.062C7.75261 64.0941 7.71801 64.084 7.66932 64.0726C7.68737 64.1097 7.75015 64.1223 7.76697 64.1735C7.66712 64.1789 7.57246 64.2061 7.51461 64.1372L7.65725 64.2916C7.62018 64.3097 7.55521 64.4034 7.5206 64.3932C7.48256 64.5035 7.75174 64.5909 7.70358 64.7358C7.71766 64.737 7.74461 64.7535 7.76389 64.7765C7.76689 64.9045 7.67126 65.0239 7.8317 65.1374L7.67972 65.2518C7.74153 65.3566 7.87766 65.0988 7.97681 65.2636C8.05914 65.3773 7.83496 65.3435 7.80185 65.3974C7.90443 65.4418 8.10316 65.5231 7.99099 65.6695C7.9408 65.5941 7.95859 65.553 7.94696 65.5236ZM8.42097 67.4887C8.39279 67.4862 8.32111 67.4941 8.36681 67.3775C8.47776 67.2452 8.43206 67.3619 8.42097 67.4887ZM9.96926 66.8292C9.97076 66.8932 9.92726 66.9036 9.89389 66.8794C9.90402 66.8448 9.927 66.8255 9.96926 66.8292ZM13.3965 61.8125C13.353 61.8229 13.3312 61.8281 13.3965 61.8125ZM13.5153 61.752C13.5101 61.7302 13.5037 61.7226 13.4832 61.7137C13.5025 61.7366 13.4859 61.7636 13.4565 61.7752C13.4899 61.7994 13.518 61.8019 13.5153 61.752ZM8.25598 61.5048L8.23176 61.5381C8.18677 61.4845 8.22137 61.4946 8.25598 61.5048Z" fill="#6E8058"/>
<path d="M9.78894 67.2677C9.77608 67.2523 9.77212 67.2165 9.76692 67.1948C9.7568 67.2294 9.76076 67.2652 9.78894 67.2677Z" fill="#6E8058"/>
<path d="M7.70727 64.6935L7.70851 64.6794L7.68676 64.6846L7.70727 64.6935Z" fill="#6E8058"/>
<path d="M12.9758 63.8626C12.9464 63.8742 12.9258 63.8653 12.8912 63.8552C12.9246 63.8794 12.9451 63.8883 12.9758 63.8626Z" fill="#6E8058"/>
<path d="M13.8115 61.1248L13.7836 61.2005C13.8078 61.1671 13.8283 61.176 13.8642 61.172C13.8437 61.1631 13.8026 61.1454 13.8115 61.1248Z" fill="#6E8058"/>
<path d="M14.8345 61.115C14.8293 61.0932 14.8498 61.1021 14.8446 61.0804L14.7984 61.0408C14.7665 61.0806 14.7757 61.1382 14.8345 61.115Z" fill="#6E8058"/>
<path d="M14.1618 61.34C14.2414 61.4038 14.2463 61.3474 14.273 61.2859L14.2653 61.2923C14.1677 61.1915 14.168 61.2696 14.1618 61.34Z" fill="#6E8058"/>
<path d="M14.2807 61.2795C14.2896 61.2589 14.2972 61.2525 14.3125 61.2397C14.274 61.1937 14.2908 61.2449 14.2807 61.2795Z" fill="#6E8058"/>
<path d="M13.5788 61.5943C13.6146 61.5903 13.4952 61.4947 13.5363 61.5125C13.4539 61.3988 13.5306 61.7391 13.5788 61.5943Z" fill="#6E8058"/>
<path d="M14.4364 61.5273L14.3287 61.4611L14.384 61.5582L14.4364 61.5273Z" fill="#6E8058"/>
<path d="M14.0724 61.7936L14.1542 61.7511C14.1414 61.7358 14.1426 61.7217 14.1374 61.6999C14.0979 61.7461 14.0455 61.7771 14.0724 61.7936Z" fill="#6E8058"/>
<path d="M14.1438 61.7076C14.1668 61.6883 14.1834 61.6613 14.1782 61.6396C14.1629 61.6524 14.1463 61.6794 14.1438 61.7076Z" fill="#6E8058"/>
<path d="M14.3831 61.6504L14.3472 61.6544L14.3013 61.693L14.3831 61.6504Z" fill="#6E8058"/>
<path d="M13.4077 62.4949L13.3709 62.5911C13.3966 62.6217 13.4389 62.6254 13.4426 62.5832C13.4386 62.5473 13.4488 62.5127 13.4077 62.4949Z" fill="#6E8058"/>
<path d="M13.861 62.5062C13.8252 62.5102 13.7982 62.4936 13.7572 62.4758L13.8689 62.5779L13.861 62.5062Z" fill="#6E8058"/>
<path d="M13.6915 62.7398C13.7172 62.7704 13.6896 62.9242 13.7687 62.8317C13.7442 62.787 13.781 62.6908 13.6915 62.7398Z" fill="#6E8058"/>
<path d="M12.5578 63.6911L12.5808 63.6719L12.3894 63.5061L12.5578 63.6911Z" fill="#6E8058"/>
<path d="M12.1399 65.06C12.264 65.0211 12.0447 64.931 12.1675 64.9062C12.1443 64.8474 12.0665 64.9258 12.0432 64.867C12.0487 64.9668 11.9987 64.9696 12.1399 65.06Z" fill="#6E8058"/>
<path d="M12.0496 64.8746C12.0509 64.8605 12.0457 64.8388 12.0469 64.8247C12.038 64.8452 12.0509 64.8605 12.0496 64.8746Z" fill="#6E8058"/>
<path d="M7.48283 57.0363L7.5184 56.9543L7.4418 57.0185L7.48283 57.0363Z" fill="#6E8058"/>
<path d="M7.27124 56.9397L7.42472 56.8893L7.26974 56.8757C7.2826 56.891 7.30188 56.914 7.27124 56.9397Z" fill="#6E8058"/>
<path d="M8.24962 68.3113L8.27507 68.2638C8.30422 68.1741 8.29259 68.1447 8.29233 68.0666L8.24962 68.3113Z" fill="#6E8058"/>
<path d="M7.98695 66.3647L7.99091 66.4006L8.10951 66.2619L7.98695 66.3647Z" fill="#6E8058"/>
<path d="M7.58013 65.3354C7.5841 65.3712 7.6239 65.4031 7.62786 65.4389C7.5841 65.3712 7.76178 65.2874 7.58013 65.3354Z" fill="#6E8058"/>
</svg>
