<svg width="178" height="158" viewBox="0 0 178 158" fill="none" xmlns="http://www.w3.org/2000/svg">
<g clip-path="url(#clip0_142_43)">
<path d="M73.35 25.9793C74.67 25.8093 76.01 25.9293 77.3 26.1793C77.98 26.3093 78.14 25.3093 77.49 25.1393C76.08 24.7793 74.7 24.6793 73.25 24.7993C72.11 24.8993 70.52 25.0493 69.76 25.9693C69.61 26.1493 69.72 26.4093 69.94 26.4593C71.05 26.7193 72.24 26.1193 73.35 25.9793Z" fill="#6E8058"/>
<path d="M69.4801 30.0495C70.2501 30.0795 71.0101 29.7295 71.7701 29.5695C72.6801 29.3695 73.6001 29.2195 74.5101 29.0595C75.1701 28.9495 75.1101 27.9195 74.4301 28.0095C73.5101 28.1295 72.5901 28.2595 71.6801 28.4295C70.8501 28.5895 69.8601 28.7195 69.2101 29.2795C68.8701 29.5595 69.0601 30.0295 69.4801 30.0495Z" fill="#6E8058"/>
<path d="M89 16.5098C88.49 16.1198 88.01 15.6998 87.58 15.2298C87.19 14.7898 86.93 14.2598 86.48 13.8798C86.28 13.7098 85.9 13.8098 85.87 14.0998C85.74 15.4198 87.41 16.5998 88.35 17.2898C88.87 17.6698 89.52 16.9098 89 16.5098Z" fill="#6E8058"/>
<path d="M106.25 14.5297C106.64 13.4297 107.06 12.3497 107.55 11.2897C107.85 10.6397 108.19 10.0297 108.59 9.43974C108.88 9.01974 109.17 8.67974 109.27 8.16974C109.32 7.92974 109.08 7.75974 108.86 7.81974C107.86 8.10974 107.3 9.38974 106.85 10.2397C106.2 11.4597 105.77 12.7897 105.34 14.0997C105.14 14.7097 106.03 15.1597 106.25 14.5297Z" fill="#6E8058"/>
<path d="M110.72 15.18C111.93 13.7 113.12 12.17 114.08 10.51C114.25 10.21 113.81 9.81995 113.54 10.06C112.12 11.36 111.12 13.01 109.92 14.52C109.51 15.04 110.3 15.7 110.72 15.18Z" fill="#6E8058"/>
<path d="M118.77 19.2396C119.46 18.9496 120.01 18.4796 120.51 17.9196C120.64 17.7796 120.66 17.5696 120.6 17.3896C120.5 17.0996 120.22 16.9496 119.91 17.0596C119.68 17.1396 119.49 17.3996 119.31 17.5696C119.04 17.8296 118.74 18.0496 118.39 18.1996C117.75 18.4796 118.11 19.5096 118.77 19.2396Z" fill="#6E8058"/>
<path d="M108.57 120.949C108.71 121.009 108.86 121.079 109.01 121.149C109.05 121.169 109.08 121.109 109.04 121.089C108.9 121.019 108.75 120.949 108.61 120.879C108.55 120.849 108.52 120.919 108.57 120.949Z" fill="#6E8058"/>
<path d="M129.59 48.23C123.95 46.87 117.94 47.06 112.15 48.34C112.12 48.28 112.09 48.23 112.04 48.19C113.4 44.09 115.33 40.18 116.79 36.11C117.35 34.56 117.91 32.82 118.17 31.07C118.49 30.1 118.73 29.1 118.69 28.15C118.68 28.02 118.58 27.93 118.47 27.9C118.59 27.43 118.74 26.95 118.82 26.46C119.23 26.32 119.4 25.66 118.89 25.4C112.82 22.31 106.66 19.63 100.99 15.79C100.75 15.62 100.48 15.7 100.33 15.86C100.32 15.84 100.31 15.83 100.3 15.81C100.06 15.36 99.28 15.77 99.5 16.23C101.11 19.56 102.66 22.97 104.7 26.05C103.37 25.42 102.02 24.82 100.78 24.15C98.35 22.84 95.8 21.38 93.08 20.73C93.09 20.65 93.11 20.57 93.12 20.49C93.13 20.42 93.11 20.36 93.08 20.31C93.15 20.29 93.22 20.27 93.28 20.25C94.81 19.77 96.64 19.27 98.09 18.36C98.14 18.36 98.18 18.37 98.23 18.35C98.51 18.25 98.78 18.14 99.06 18.05C99.07 18.05 99.07 18.05 99.08 18.06C99.12 18.07 99.13 18.09 99.23 18.12C99.7 18.29 100.22 17.65 99.74 17.32C99.66 17.27 99.59 17.19 99.5 17.13C99.54 16.99 99.47 16.85 99.34 16.79C99.3 16.46 98.92 16.19 98.58 16.31C98.2 16.45 97.81 16.58 97.44 16.73C97.27 16.8 97.1 16.96 97.08 17.16C97.07 17.26 97.08 17.34 97.1 17.41C95.37 18.07 93.67 18.93 91.92 19.49C89.4 20.3 86.83 20.96 84.34 21.86C84.08 21.95 83.99 22.17 84.01 22.38C83.95 22.43 83.89 22.49 83.85 22.57C82.45 25.29 81.78 28.58 80.87 31.48C80.27 33.41 79.67 35.35 79.01 37.27C78.85 37.76 78.48 39.23 78.18 39.71C77.91 39.8 77.7 40.12 77.93 40.4C78 40.49 78.09 40.55 78.16 40.62C78.1 40.73 78.09 40.87 78.2 41.01C81.04 44.57 86.46 46.78 90.44 48.68C93.24 50.02 96.42 51.47 99.64 52.34C96.31 52.76 92.79 55.21 89.93 58.24C83.1 53.87 74.92 51.2 65.74 50.85C44.1 50.05 23.11 63.7 18.63 84.94C18.54 84.96 18.46 85.01 18.41 85.11C13.33 96.29 16.66 110.51 22.52 120.78C29.41 132.85 40.41 140.62 54.01 143.35C73.36 147.24 93.56 137.9 103.81 121.98C106.26 122.98 108.84 123.75 111.54 124.2C131.62 127.57 150.55 117.14 155.63 97.29C160.74 77.31 150.49 53.29 129.59 48.23ZM110.02 46.19C109.64 46.82 109.21 47.42 108.77 48.01C108.9 46.6 108.79 45.14 108.64 43.71C108.73 42.13 108.74 40.54 108.92 39.01C108.97 38.55 108.31 38.42 108.21 38.88C108.2 38.91 108.2 38.94 108.19 38.97C107.97 36.22 107.81 33.49 107.88 30.73C107.89 30.72 107.9 30.72 107.9 30.71C108.07 30.6 108.11 30.46 108.11 30.32C109.97 32.04 111.89 33.71 113.86 35.31C113.58 36.23 113.29 37.14 113 38.03C112.31 40.11 111.68 42.2 111.21 44.33C110.69 44.85 110.38 45.59 110.02 46.19ZM107.49 47.89C107.54 48.47 107.6 49.04 107.64 49.6C107.03 49.8 106.42 50.01 105.82 50.22C104.68 47.78 103.5 45.33 102.29 42.93C104.43 39.49 105.41 35.51 106.64 31.67C106.3 36.34 106.85 41.33 107.31 46.05C107.3 46.57 107.28 47.1 107.31 47.61C107.32 47.75 107.4 47.83 107.49 47.89ZM101.02 42.4C101.07 42.52 101.12 42.65 101.18 42.77C101.17 42.82 101.17 42.87 101.17 42.92C101.12 42.85 101.05 42.78 100.95 42.75C97.02 41.42 93.47 39.36 89.76 37.59C94.9 37.35 100.68 34.94 105.28 32.32C104.18 35.56 103.38 38.91 101.65 41.88C101.31 41.72 100.84 41.97 101.02 42.4ZM104.73 50.64C104.37 50.78 104.01 50.91 103.66 51.05C100.6 49.39 97.81 47.83 95.1 45.52C92.9 43.65 90.85 41.61 88.79 39.58C88.77 39.53 88.73 39.49 88.69 39.48C88.49 39.29 88.3 39.09 88.1 38.9C88.39 38.82 88.67 38.73 88.97 38.66C89.11 38.63 89.2 38.55 89.26 38.46C92.92 40.45 96.6 42.81 100.63 43.77C101.01 43.86 101.27 43.5 101.27 43.18C101.31 43.25 101.37 43.3 101.43 43.34C102.43 45.79 103.35 48.38 104.73 50.64ZM114.16 40.17C113.55 41.6 112.92 43.02 112.32 44.44C112.91 42.06 113.63 39.72 114.42 37.39C114.56 36.98 114.71 36.56 114.86 36.15C114.94 36.21 115.01 36.27 115.09 36.34C114.69 37.43 114.29 38.52 113.89 39.61C113.79 39.87 113.95 40.09 114.16 40.17ZM117.04 29.94C116.98 30.3 116.92 30.67 116.86 31.03C116.85 31.08 116.86 31.12 116.86 31.16C116.66 31.85 116.47 32.53 116.24 33.18C116 33.86 115.74 34.54 115.49 35.22C115.41 35.16 115.34 35.09 115.27 35.03C116.05 32.93 116.83 30.78 117.11 28.61C117.11 29.06 117.07 29.5 117.04 29.94ZM117.09 27.82C116.96 27.68 116.72 27.66 116.61 27.88C115.62 29.84 114.91 32 114.24 34.16C112.57 32.73 110.9 31.31 109.22 29.89C111.9 29.33 114.52 28.4 117.09 27.47C117.09 27.58 117.08 27.7 117.09 27.82ZM100.9 16.94C105.88 20.96 112.15 23.32 117.85 26.15C117.84 26.18 117.83 26.21 117.81 26.24C117.68 26.13 117.5 26.07 117.29 26.15C114.32 27.22 111.36 28.19 108.31 28.92C108.24 28.84 108.18 28.76 108.1 28.68C108.36 28.56 108.53 28.22 108.23 28.01C107.79 27.7 107.32 27.43 106.84 27.16C104.45 24.04 102.75 20.43 100.9 16.94ZM100.32 25.16C102.01 26.08 104.03 27.52 106.03 28.27C106.05 28.36 106.08 28.45 106.17 28.53C106.42 28.76 106.67 28.99 106.92 29.22C106.92 29.24 106.91 29.27 106.91 29.29C106.85 29.32 106.81 29.36 106.77 29.4C106.58 29.37 106.39 29.44 106.29 29.67C106.16 29.97 106.05 30.27 105.93 30.58C100.61 33.47 94.4 36.32 88.36 36.61C89.17 34.58 89.82 32.49 90.46 30.39C91.3 27.61 92.43 24.64 92.96 21.73C95.47 22.74 97.91 23.85 100.32 25.16ZM85.13 22.74C87.58 21.94 90.05 21.24 92.52 20.49C92.5 20.52 92.49 20.56 92.47 20.59C92.45 20.58 92.43 20.58 92.4 20.57C91.94 20.49 91.7 21.16 92.12 21.36C91.16 23.51 90.65 25.96 90 28.2C89.15 31.11 88.22 33.97 87.2 36.81C87.13 36.84 87.06 36.88 87.01 36.94C86.25 32.23 86.14 27.42 85.13 22.74ZM81.05 34.6C82.16 31.13 83.16 27.61 84.39 24.17C85.08 28.75 85.28 33.4 86.13 37.96C86.13 37.97 86.13 37.99 86.14 38C86.15 38.06 86.16 38.12 86.17 38.18C85.53 38.41 84.91 38.66 84.32 38.86C83.15 39.26 80.57 40.49 79.1 40.04C80.14 38.79 80.8 35.36 81.05 34.6ZM79.41 41.14C80.25 41.22 81.18 40.96 81.96 40.77C83.58 40.37 85.14 39.8 86.73 39.29C86.55 41.65 86.54 44.24 87.35 46.35C84.43 45.02 81.49 43.4 79.41 41.14ZM90.82 47.87C90.03 47.54 89.2 47.18 88.36 46.81C88.36 45.37 87.98 43.9 87.86 42.46C87.79 41.58 87.76 40.7 87.76 39.82C88.08 40.17 88.41 40.5 88.73 40.85C89.36 43.22 89.7 45.86 91.02 47.88C91.12 48.04 91.37 47.94 91.36 47.76C91.16 45.79 90.43 43.77 89.67 41.83C89.87 42.04 90.09 42.24 90.29 42.44C90.19 42.49 90.12 42.6 90.18 42.72C90.68 43.68 91.03 44.7 91.4 45.71C91.75 46.68 92 47.82 92.63 48.65C92.02 48.38 91.41 48.12 90.82 47.87ZM93.02 48.81C93.1 48.77 93.17 48.69 93.17 48.57C93.17 47.48 92.57 46.41 92.15 45.44C91.79 44.61 91.34 43.82 90.89 43.04C91.38 43.52 91.87 43.99 92.37 44.46C92.25 44.55 92.17 44.69 92.23 44.87C92.46 45.56 92.7 46.26 92.93 46.95C93.14 47.59 93.26 48.34 93.81 48.78C93.97 48.91 94.22 48.82 94.26 48.62C94.38 48.02 94.1 47.5 93.88 46.94C93.66 46.39 93.45 45.83 93.24 45.28C93.6 45.62 93.98 45.94 94.34 46.27C94.26 46.37 94.22 46.5 94.28 46.66C94.54 47.41 94.79 48.16 95.11 48.88C95.25 49.2 95.43 49.61 95.69 49.9C94.78 49.54 93.89 49.18 93.02 48.81ZM96.41 50.16C96.49 50.12 96.56 50.05 96.58 49.95C96.67 49.42 96.24 48.99 96.01 48.54C95.79 48.12 95.61 47.67 95.43 47.23C95.63 47.4 95.84 47.58 96.06 47.76C95.94 47.85 95.87 48.01 95.94 48.21C96.26 49.06 96.9 50.29 97.79 50.63C97.96 50.7 98.2 50.58 98.17 50.37C98.11 49.96 97.91 49.7 97.64 49.37C97.44 49.13 97.27 48.88 97.1 48.62C98.08 49.41 99.15 50.19 100.27 50.8C100.07 50.86 99.91 51.06 99.9 51.28C98.73 50.97 97.56 50.59 96.41 50.16ZM100.27 124.81C100.14 124.96 100.02 125.12 99.9 125.28C99.78 125.43 99.65 125.57 99.53 125.72C91.43 135.15 79.18 141.16 66.31 142.34C66.28 142.27 66.22 142.2 66.11 142.19C54.32 140.74 44.33 137.39 34.66 130.31C21.3 120.54 20.93 107.08 18.89 92.15C18.85 91.83 18.41 91.87 18.4 92.19C17.89 106.57 21.01 119.92 32.01 129.69C39.19 136.07 49.22 141.17 59.15 142.5C58.23 142.45 57.31 142.39 56.4 142.29C31.4 139.65 14.04 113.92 18.04 89.92C18.34 90.38 19.15 90.41 19.24 89.73C21.89 68.09 39.25 54.63 60.24 52.47C70.37 51.43 80.61 53.84 89.39 58.87C88.7 59.64 88.05 60.43 87.47 61.24C87.37 61.31 87.29 61.39 87.2 61.46C86.89 61.24 86.53 61.08 86.18 60.91C85.78 60.72 85.46 61.06 85.45 61.4C85.12 61.27 84.79 61.16 84.54 61.05C84.02 60.82 83.63 61.39 83.81 61.79C83.25 61.58 82.69 61.35 82.11 61.17C81.82 61.08 81.58 61.28 81.52 61.51C80.69 61.12 79.85 60.75 78.99 60.41C78.61 60.26 78.38 60.69 78.6 60.95C62.23 54.79 38.34 62.93 30.64 78.78C23.28 91.23 24.54 104.3 31.49 114.6C31.28 114.7 31.13 114.95 31.29 115.21C38.89 128.08 54.85 138.27 70.22 133.74C70.42 133.68 70.49 133.52 70.5 133.36C75.41 133.05 80.25 131.79 84.77 129.5C86.38 129.78 88.2 129.73 89.58 129.04C89.75 128.95 89.77 128.68 89.55 128.64C88.64 128.49 87.72 128.65 86.81 128.74C86.57 128.77 86.34 128.75 86.11 128.76C86.83 128.36 87.54 127.92 88.25 127.47C88.26 127.63 88.34 127.78 88.52 127.81C89.91 128 92.79 127.88 93.05 126C93.08 125.79 92.88 125.59 92.66 125.67C92.08 125.89 91.67 126.37 91.11 126.64C90.37 127 89.61 127.11 88.8 127.1C89.53 126.61 90.24 126.08 90.95 125.53C91.02 125.59 91.12 125.64 91.24 125.64C91.91 125.62 92.54 125.52 93.18 125.32C93.93 125.09 94.33 124.71 94.77 124.09C94.88 123.94 94.75 123.73 94.56 123.79C93.72 124.08 92.91 124.43 92.06 124.63C92.36 124.35 92.29 123.94 92.06 123.72C93.04 122.82 93.94 121.84 94.8 120.81C94.43 121.45 94.06 122.1 93.69 122.74C93.48 123.11 94.06 123.47 94.31 123.14C97.17 119.38 99.92 114.64 100.67 109.87C102.96 102.13 102.79 93.89 100.52 86.29C100.64 86.41 100.85 86.42 100.94 86.22C101.64 84.62 101.35 82.54 101.34 80.83C101.34 80.32 100.58 80.4 100.57 80.89C100.52 82.51 100.16 84.34 100.42 85.95C99.46 82.84 98.17 79.84 96.54 77.03C96.6 77.01 96.66 76.95 96.67 76.87C96.7 75.71 96.35 74.56 96.13 73.43C96.08 73.17 95.66 73.19 95.71 73.46C95.88 74.48 95.98 75.54 96.26 76.54C95.44 75.18 94.55 73.86 93.58 72.6C93.72 71.74 93.34 70.68 93.07 69.96C93.06 69.93 93.04 69.91 93.03 69.89C93.1 69.79 93.16 69.69 93.23 69.59C94.53 70.87 95.77 72.21 96.99 73.59C96.78 73.58 96.55 73.71 96.59 73.96C96.83 75.36 96.72 77.07 97.47 78.32C97.56 78.47 97.81 78.41 97.84 78.24C98.05 76.88 97.65 75.35 97.34 74.01C97.56 74.26 97.77 74.52 97.99 74.77C97.81 74.76 97.63 74.86 97.68 75.09C97.99 76.59 98.21 78.1 98.55 79.59C98.6 79.8 98.95 79.76 98.96 79.56C99.06 78.09 98.67 76.64 98.36 75.22C98.78 75.71 99.21 76.19 99.62 76.7C99.79 76.91 100.18 76.74 100.06 76.47C98.6 73.38 96.42 70.81 93.91 68.57C94.91 67.23 96.05 66.03 97.27 64.9C105.62 73.61 108.79 86.49 109.21 98.31C109.41 103.97 108.45 109.24 106.59 114.02C106.43 113.94 106.21 113.95 106.1 114.1C104.86 115.74 104.3 117.98 103.4 119.83C102.53 121.62 101.47 123.27 100.27 124.81ZM84.63 67.41C83.18 69.87 82 72.5 81.32 75.17C82.04 71.65 83.14 68.18 85.04 65.32C84.8 65.85 84.58 66.38 84.42 66.87C84.33 67.13 84.45 67.33 84.63 67.41ZM50.46 129.83C52.93 130.88 55.52 131.66 58.16 132.19C59.44 132.52 60.73 132.77 62.03 132.97C57.43 132.78 53.04 131.99 48.4 129.84C43.91 127.77 40.12 124.6 36.84 120.95C40.61 124.57 45.21 127.6 50.46 129.83ZM29.32 84.58C29.38 84.59 29.44 84.58 29.5 84.57C25.6 96.83 27.55 108.89 36.22 118.73C27.79 109.64 24.74 96.9 29.32 84.58ZM59.11 130.77C54.19 129.56 49.27 127.35 44.42 124.17C26.59 112.48 25.75 93.36 34.56 75.64C34.66 75.44 34.62 75.26 34.52 75.13C44.82 61.4 67.67 56.43 82.28 64.25C82.81 64.53 83.3 64.85 83.8 65.17C80.41 70.41 79.62 77.82 78.9 83.54C77.66 93.47 81.41 105.18 89.28 111.62C91.15 113.78 93.28 115.72 95.6 117.43C95.42 117.7 95.26 117.98 95.09 118.25C87.26 129.03 72.6 133.06 59.11 130.77ZM97.38 110.42C97.32 110.51 97.28 110.63 97.33 110.77C97.51 111.3 97.81 112.06 98.26 112.54C98.23 112.62 98.19 112.69 98.16 112.77C97.98 112.46 97.78 112.15 97.61 111.87C97.14 111.05 96.69 110.22 96.25 109.39C96.61 109.74 97 110.07 97.38 110.42ZM91.51 71.84C99.62 81.44 102.63 95.53 99.91 107.52C99.74 108.25 99.55 108.96 99.34 109.66C89.21 100.33 87.07 84.65 91.51 71.84ZM97.66 64.53C108.57 54.75 126.78 53.17 138.23 62.67C148.96 71.57 151.55 87.82 145.77 100.12C139.18 114.13 121.47 120.7 107.49 114.96C108.99 111.31 110 107.43 110.43 103.36C112.03 87.89 107.05 74.11 97.66 64.53ZM155.25 93.32C152.36 114.69 133.86 124.88 113.55 123.28C110.32 123.03 107.25 122.27 104.34 121.15C104.54 120.83 104.72 120.5 104.9 120.17C105.31 120.87 105.94 121.51 106.7 121.43C106.9 121.41 107.01 121.22 106.95 121.04C106.73 120.28 105.88 119.9 105.42 119.24C105.51 119.08 105.58 118.91 105.67 118.76C106.3 119.58 107.22 120.71 108.14 120.44C108.24 120.41 108.31 120.29 108.3 120.19C108.29 120.08 108.26 120 108.22 119.91C109.41 120.6 110.62 121.2 112 121.6C112.16 121.65 112.23 121.39 112.09 121.33C110.89 120.83 109.71 120.22 108.56 119.58C108.79 119.67 109.02 119.78 109.27 119.81C109.45 119.84 109.58 119.7 109.6 119.55C109.63 119.59 109.65 119.63 109.7 119.66C111.21 120.26 112.73 120.84 114.28 121.33C115.62 121.76 117.38 122.48 118.79 122.15C118.95 122.11 118.99 121.87 118.85 121.78C117.89 121.13 116.56 121.02 115.45 120.74C113.6 120.27 111.77 119.72 109.97 119.09C109.74 119.01 109.57 119.18 109.54 119.37C108.84 118.34 107.6 117.71 106.6 116.93C106.64 116.84 106.69 116.76 106.73 116.67C108.61 117.51 110.57 118.21 112.64 118.69C113.04 118.78 113.22 118.19 112.85 118.02C112.56 117.88 112.29 117.74 112 117.6C114.44 118.13 116.92 118.33 119.38 118.22C119.28 118.35 119.26 118.54 119.46 118.63C121.65 119.58 124.77 119.97 126.96 118.83C127.13 118.74 127.17 118.43 126.93 118.41C124.5 118.21 122.24 119.11 119.86 118.18C121.53 118.08 123.18 117.83 124.82 117.46C124.84 117.47 124.84 117.49 124.87 117.49C126.77 117.86 129.02 118.3 130.92 117.76C131.14 117.7 131.08 117.39 130.89 117.34C129.5 117.01 128.04 117.07 126.6 117C128.4 116.49 130.15 115.79 131.85 114.97C131.87 115.08 131.95 115.19 132.1 115.19C134.02 115.25 136.26 114.92 137.83 113.74C137.95 113.65 137.88 113.45 137.73 113.46C135.93 113.55 134.31 114.47 132.52 114.65C136.09 112.83 139.35 110.34 142.1 107.3C143.93 106.96 145.46 106.06 146.4 104.42C146.45 104.33 146.33 104.23 146.25 104.29C145.16 105.17 144.09 106.01 142.8 106.49C143.5 105.67 144.16 104.8 144.78 103.91C146.63 102.64 148.64 101.04 149.52 98.99C149.58 98.87 149.43 98.72 149.31 98.81C148.17 99.73 147.15 100.8 146.12 101.85C146.15 101.8 146.18 101.76 146.21 101.71C146.87 100.57 147.41 99.38 147.9 98.18C148.93 96.93 149.92 95.51 150.3 94C150.34 93.83 150.1 93.72 150 93.86C149.53 94.48 149.14 95.15 148.75 95.82C152.5 83.53 147.88 69.2 138.03 61.03C124.6 49.9 99.53 55.05 91.42 70.44C91.35 70.46 91.29 70.51 91.24 70.6C86.34 80.96 87.16 93.83 93.04 103.63C92.58 103.03 92.11 102.45 91.68 101.8C85.34 92.39 85.9 81.21 90.14 71.14C90.31 70.74 89.73 70.47 89.53 70.85C82.71 83.79 86.34 99.02 95.88 108.96C95.59 108.92 95.22 109.21 95.37 109.54C95.77 110.4 96.14 111.28 96.58 112.12C96.88 112.7 97.17 113.44 97.66 113.91C97.57 114.09 97.5 114.28 97.42 114.46C97.06 115.01 96.75 115.6 96.42 116.14C96.32 116.3 96.22 116.46 96.12 116.61C94.13 115.15 92.25 113.51 90.55 111.66C90.54 111.55 90.5 111.44 90.4 111.35C89.99 110.96 89.6 110.55 89.21 110.14C89.12 110.02 89.02 109.92 88.92 109.8C82.66 102.1 80.95 92.84 81.31 83.44C81.46 83.41 81.58 83.31 81.55 83.11C81.47 82.53 81.43 81.95 81.41 81.39C81.51 79.98 81.64 78.57 81.82 77.16C84.95 70.06 88.33 63.3 94.23 57.96C96.53 55.88 99.15 54.2 101.97 52.87C102 52.87 102.02 52.88 102.05 52.88C102.06 52.92 102.11 52.94 102.14 52.97C100.63 53.73 99.25 54.6 98.17 55.53C97.67 55.96 98.25 56.81 98.77 56.38C103.01 52.88 108.04 52.8 113.06 51.36C113.35 51.28 113.29 50.84 113.01 50.79C111.99 50.59 110.87 50.59 109.72 50.69C109.72 50.53 109.66 50.36 109.54 50.25C109.64 50.21 109.74 50.17 109.84 50.12C110.07 50.06 110.29 50 110.52 49.94C110.74 50.22 111.29 50.24 111.49 49.86C111.52 49.81 111.56 49.77 111.59 49.72C114.9 49.02 118.27 48.65 121.52 48.57C145.26 47.98 158.13 72.06 155.25 93.32Z" fill="#6E8058"/>
<path d="M114.29 118.13C113.8 118 113.67 118.76 114.15 118.9C116.77 119.66 119.79 120.97 122.55 120.69C122.68 120.68 122.71 120.5 122.6 120.44C120.08 119.2 116.98 118.86 114.29 118.13Z" fill="#6E8058"/>
<path d="M131.67 116.1C130.77 116.2 129.88 116.25 128.97 116.24C128.77 116.24 128.75 116.59 128.95 116.6C130.62 116.69 132.89 117.21 134.31 116.08C134.42 115.99 134.36 115.84 134.22 115.83C133.38 115.8 132.52 116.01 131.67 116.1Z" fill="#6E8058"/>
<path d="M137.05 112.62C136.85 112.65 136.87 112.96 137.07 112.94C138.37 112.84 139.79 112.64 140.69 111.6C140.79 111.48 140.66 111.32 140.53 111.37C139.32 111.75 138.32 112.42 137.05 112.62Z" fill="#6E8058"/>
<path d="M142.36 109C141.7 109.32 141.01 109.58 140.33 109.85C139.98 109.98 140.17 110.51 140.53 110.39C141.76 109.98 143.45 109.61 144.27 108.51C144.37 108.38 144.24 108.23 144.1 108.26C143.47 108.4 142.92 108.73 142.36 109Z" fill="#6E8058"/>
<path d="M135.27 57.9001C135.35 57.8701 135.31 57.7401 135.22 57.7701C135.14 57.8001 135.19 57.9301 135.27 57.9001Z" fill="#6E8058"/>
<path d="M138.43 60.6498H138.44L138.2 60.0098L138.43 60.6498Z" fill="#6E8058"/>
<path d="M137.58 58.9299C140.45 61.2799 142.62 64.1299 144.73 67.1399C144.97 67.4799 145.58 67.1799 145.39 66.7999C143.67 63.3799 141.02 60.7199 137.91 58.5399C137.64 58.3499 137.32 58.7199 137.58 58.9299Z" fill="#6E8058"/>
<path d="M53.7601 133.72C53.3501 133.47 52.9001 134.16 53.3101 134.43C56.6901 136.68 61.0601 138.56 65.2101 138C65.6001 137.95 65.6701 137.34 65.2501 137.29C61.1201 136.78 57.3501 135.88 53.7601 133.72Z" fill="#6E8058"/>
<path d="M64.12 135.17C63.68 134.98 63.3699 135.63 63.7999 135.84C66.1799 136.99 68.8999 137.98 71.5699 137.76C71.8299 137.74 71.9399 137.33 71.6699 137.23C69.1799 136.4 66.57 136.22 64.12 135.17Z" fill="#6E8058"/>
<path d="M68.87 134.25C68.39 134.15 68.28 134.86 68.74 134.99C71.25 135.7 74.14 137.13 76.81 136.82C77.14 136.78 77.28 136.28 76.93 136.15C74.42 135.16 71.49 134.82 68.87 134.25Z" fill="#6E8058"/>
<path d="M76.43 134.049C75.94 134.059 76.01 134.799 76.49 134.799C77.65 134.789 78.79 134.929 79.93 134.689C80.17 134.639 80.23 134.279 79.95 134.239C78.79 134.039 77.62 134.019 76.43 134.049Z" fill="#6E8058"/>
<path d="M27.27 81.0598C29.36 76.1398 32.76 70.7198 37.36 67.8298C37.41 67.7998 37.36 67.7198 37.31 67.7498C32.26 70.6598 28.53 75.3598 26.83 80.9198C26.75 81.1698 27.17 81.2998 27.27 81.0598Z" fill="#6E8058"/>
<path d="M67.76 57.1702C73.27 57.0602 78.38 57.3902 83.55 59.4202C83.78 59.5102 84 59.2102 83.79 59.0402C79.38 55.6102 72.95 56.0702 67.71 56.4402C67.23 56.4702 67.3 57.1802 67.76 57.1702Z" fill="#6E8058"/>
<path d="M93.92 70.75C94.14 71.32 94.3 71.89 94.41 72.49C94.42 72.55 94.51 72.55 94.51 72.48C94.53 71.84 94.35 71.27 94.15 70.66C94.1 70.52 93.87 70.61 93.92 70.75Z" fill="#6E8058"/>
<path d="M94.92 72.0399C95.08 72.9999 95.41 73.9099 95.63 74.8599C95.66 74.9899 95.87 74.9399 95.86 74.8099C95.76 73.8499 95.55 72.9499 95.4 71.9999C95.34 71.7099 94.87 71.7399 94.92 72.0399Z" fill="#6E8058"/>
<path d="M98.92 77.4498C99.03 79.0598 98.91 80.7098 99.2 82.2998C99.26 82.6298 99.73 82.6898 99.8 82.3298C100.13 80.6998 99.8 79.0198 99.59 77.3998C99.53 76.9698 98.89 77.0098 98.92 77.4498Z" fill="#6E8058"/>
<path d="M101.78 85.53C101.76 85.47 101.74 85.4 101.71 85.34C101.7 85.31 101.65 85.33 101.66 85.36C101.68 85.42 101.71 85.49 101.73 85.55C101.75 85.57 101.79 85.56 101.78 85.53Z" fill="#6E8058"/>
<path d="M90.9 105.359C90.78 105.099 90.42 105.229 90.49 105.509C90.87 107.079 91.04 109.589 92.58 110.499C92.72 110.589 92.89 110.439 92.88 110.289C92.84 109.509 92.41 108.819 92.11 108.109C91.72 107.179 91.33 106.269 90.9 105.359Z" fill="#6E8058"/>
<path d="M94.3201 112.33C94.4201 112.44 94.5801 112.38 94.5801 112.24C94.6401 110.66 93.5701 109.03 92.8701 107.66C92.7001 107.33 92.1501 107.52 92.3201 107.86C93.0101 109.27 93.2601 111.15 94.3201 112.33Z" fill="#6E8058"/>
<path d="M97.28 113.8C96.97 112.9 96.39 112.13 95.95 111.3C95.41 110.28 94.93 109.21 94.6 108.11C94.47 107.69 93.88 107.93 93.97 108.34C94.42 110.31 95.11 112.86 96.78 114.16C97.02 114.35 97.38 114.1 97.28 113.8Z" fill="#6E8058"/>
<path d="M15.62 118.469C16.99 122.889 19.3 127.219 22.72 130.399C23 130.659 23.39 130.259 23.19 129.959C20.72 126.089 17.92 122.539 16.01 118.329C15.9 118.079 15.54 118.209 15.62 118.469Z" fill="#6E8058"/>
<path d="M19.7 131.2C19.38 130.81 18.72 131.26 19.05 131.66C20.14 132.99 21.52 133.66 23.07 134.33C23.42 134.48 23.66 133.97 23.32 133.8C21.99 133.12 20.67 132.36 19.7 131.2Z" fill="#6E8058"/>
<path d="M146.75 55.2098C147.04 55.5098 147.5 55.0498 147.27 54.7298C144.27 50.4198 139.24 48.3498 134.77 45.9698C134.45 45.7998 134.24 46.2898 134.54 46.4698C138.92 49.0398 143.17 51.5698 146.75 55.2098Z" fill="#6E8058"/>
<line x1="-126" y1="86.5" x2="0.0158691" y2="86.5" stroke="#6E8058"/>
<path d="M146.14 48.2493C145.79 47.8593 145.1 48.3193 145.46 48.7293C149.41 53.4393 152.42 58.5093 155.02 64.0593C155.23 64.5193 155.91 64.2793 155.76 63.7893C154 57.9093 150.21 52.7493 146.14 48.2493Z" fill="#6E8058"/>
<path d="M18.78 71.9698C20.28 70.2398 21.76 68.2698 22.99 66.3398C23.22 65.9698 22.84 65.4398 22.44 65.7398C20.55 67.1398 19.13 69.4298 17.92 71.4198C17.61 71.9298 18.41 72.3898 18.78 71.9698Z" fill="#6E8058"/>
<path d="M159.49 98.4402C159.43 102.11 158.14 105.43 156.99 108.86C156.81 109.38 157.48 109.71 157.77 109.23C159.67 105.98 160.31 102.1 160.19 98.3902C160.17 97.9302 159.5 98.0002 159.49 98.4402Z" fill="#6E8058"/>
</g>
<defs>
<clipPath id="clip0_142_43">
<rect width="177.94" height="157.96" fill="white"/>
</clipPath>
</defs>
</svg>
