<svg width="1168" height="138" viewBox="0 0 1168 138" fill="none" xmlns="http://www.w3.org/2000/svg">
<path d="M570.35 18.9797C571.67 18.8097 573.01 18.9297 574.3 19.1797C574.98 19.3097 575.14 18.3097 574.49 18.1397C573.08 17.7797 571.7 17.6797 570.25 17.7997C569.11 17.8997 567.52 18.0497 566.76 18.9697C566.61 19.1497 566.72 19.4097 566.94 19.4597C568.05 19.7197 569.24 19.1197 570.35 18.9797Z" fill="#6E8058"/>
<path d="M566.48 23.0497C567.25 23.0797 568.01 22.7297 568.77 22.5697C569.68 22.3697 570.6 22.2197 571.51 22.0597C572.17 21.9497 572.11 20.9197 571.43 21.0097C570.51 21.1297 569.59 21.2597 568.68 21.4297C567.85 21.5897 566.86 21.7197 566.21 22.2797C565.87 22.5597 566.06 23.0297 566.48 23.0497Z" fill="#6E8058"/>
<path d="M586 9.50974C585.49 9.11974 585.01 8.69974 584.58 8.22974C584.19 7.78974 583.93 7.25974 583.48 6.87974C583.28 6.70974 582.9 6.80974 582.87 7.09974C582.74 8.41974 584.41 9.59974 585.35 10.2897C585.87 10.6697 586.52 9.90974 586 9.50974Z" fill="#6E8058"/>
<path d="M603.25 7.52974C603.64 6.42974 604.06 5.34974 604.55 4.28974C604.85 3.63974 605.19 3.02974 605.59 2.43974C605.88 2.01974 606.17 1.67974 606.27 1.16974C606.32 0.929738 606.08 0.759738 605.86 0.819738C604.86 1.10974 604.3 2.38974 603.85 3.23974C603.2 4.45974 602.77 5.78974 602.34 7.09974C602.14 7.70974 603.03 8.15974 603.25 7.52974Z" fill="#6E8058"/>
<path d="M607.72 8.17974C608.93 6.69974 610.12 5.16974 611.08 3.50974C611.25 3.20974 610.81 2.81974 610.54 3.05974C609.12 4.35974 608.12 6.00974 606.92 7.51974C606.51 8.03974 607.3 8.69974 607.72 8.17974Z" fill="#6E8058"/>
<path d="M615.77 12.2397C616.46 11.9497 617.01 11.4797 617.51 10.9197C617.64 10.7797 617.66 10.5697 617.6 10.3897C617.5 10.0997 617.22 9.94974 616.91 10.0597C616.68 10.1397 616.49 10.3997 616.31 10.5697C616.04 10.8297 615.74 11.0497 615.39 11.1997C614.75 11.4797 615.11 12.5097 615.77 12.2397Z" fill="#6E8058"/>
<path d="M605.57 113.95C605.71 114.01 605.86 114.08 606.01 114.15C606.05 114.17 606.08 114.11 606.04 114.09C605.9 114.02 605.75 113.95 605.61 113.88C605.55 113.85 605.52 113.92 605.57 113.95Z" fill="#6E8058"/>
<path d="M626.59 41.2297C620.95 39.8697 614.94 40.0597 609.15 41.3397C609.12 41.2797 609.09 41.2297 609.04 41.1897C610.4 37.0897 612.33 33.1797 613.79 29.1097C614.35 27.5597 614.91 25.8197 615.17 24.0697C615.49 23.0997 615.73 22.0997 615.69 21.1497C615.68 21.0197 615.58 20.9297 615.47 20.8997C615.59 20.4297 615.74 19.9497 615.82 19.4597C616.23 19.3197 616.4 18.6597 615.89 18.3997C609.82 15.3097 603.66 12.6297 597.99 8.78974C597.75 8.61974 597.48 8.69974 597.33 8.85974C597.32 8.83974 597.31 8.82974 597.3 8.80974C597.06 8.35974 596.28 8.76974 596.5 9.22974C598.11 12.5597 599.66 15.9697 601.7 19.0497C600.37 18.4197 599.02 17.8197 597.78 17.1497C595.35 15.8397 592.8 14.3797 590.08 13.7297C590.09 13.6497 590.11 13.5697 590.12 13.4897C590.13 13.4197 590.11 13.3597 590.08 13.3097C590.15 13.2897 590.22 13.2697 590.28 13.2497C591.81 12.7697 593.64 12.2697 595.09 11.3597C595.14 11.3597 595.18 11.3697 595.23 11.3497C595.51 11.2497 595.78 11.1397 596.06 11.0497C596.07 11.0497 596.07 11.0497 596.08 11.0597C596.12 11.0697 596.13 11.0897 596.23 11.1197C596.7 11.2897 597.22 10.6497 596.74 10.3197C596.66 10.2697 596.59 10.1897 596.5 10.1297C596.54 9.98974 596.47 9.84974 596.34 9.78974C596.3 9.45974 595.92 9.18974 595.58 9.30974C595.2 9.44974 594.81 9.57974 594.44 9.72974C594.27 9.79974 594.1 9.95974 594.08 10.1597C594.07 10.2597 594.08 10.3397 594.1 10.4097C592.37 11.0697 590.67 11.9297 588.92 12.4897C586.4 13.2997 583.83 13.9597 581.34 14.8597C581.08 14.9497 580.99 15.1697 581.01 15.3797C580.95 15.4297 580.89 15.4897 580.85 15.5697C579.45 18.2897 578.78 21.5797 577.87 24.4797C577.27 26.4097 576.67 28.3497 576.01 30.2697C575.85 30.7597 575.48 32.2297 575.18 32.7097C574.91 32.7997 574.7 33.1197 574.93 33.3997C575 33.4897 575.09 33.5497 575.16 33.6197C575.1 33.7297 575.09 33.8697 575.2 34.0097C578.04 37.5697 583.46 39.7797 587.44 41.6797C590.24 43.0197 593.42 44.4697 596.64 45.3397C593.31 45.7597 589.79 48.2097 586.93 51.2397C580.1 46.8697 571.92 44.1997 562.74 43.8497C541.1 43.0497 520.11 56.6997 515.63 77.9397C515.54 77.9597 515.46 78.0097 515.41 78.1097C510.33 89.2897 513.66 103.51 519.52 113.78C526.41 125.85 537.41 133.62 551.01 136.35C570.36 140.24 590.56 130.9 600.81 114.98C603.26 115.98 605.84 116.75 608.54 117.2C628.62 120.57 647.55 110.14 652.63 90.2897C657.74 70.3097 647.49 46.2897 626.59 41.2297ZM607.02 39.1897C606.64 39.8197 606.21 40.4197 605.77 41.0097C605.9 39.5997 605.79 38.1397 605.64 36.7097C605.73 35.1297 605.74 33.5397 605.92 32.0097C605.97 31.5497 605.31 31.4197 605.21 31.8797C605.2 31.9097 605.2 31.9397 605.19 31.9697C604.97 29.2197 604.81 26.4897 604.88 23.7297C604.89 23.7197 604.9 23.7197 604.9 23.7097C605.07 23.5997 605.11 23.4597 605.11 23.3197C606.97 25.0397 608.89 26.7097 610.86 28.3097C610.58 29.2297 610.29 30.1397 610 31.0297C609.31 33.1097 608.68 35.1997 608.21 37.3297C607.69 37.8497 607.38 38.5897 607.02 39.1897ZM604.49 40.8897C604.54 41.4697 604.6 42.0397 604.64 42.5997C604.03 42.7997 603.42 43.0097 602.82 43.2197C601.68 40.7797 600.5 38.3297 599.29 35.9297C601.43 32.4897 602.41 28.5097 603.64 24.6697C603.3 29.3397 603.85 34.3297 604.31 39.0497C604.3 39.5697 604.28 40.0997 604.31 40.6097C604.32 40.7497 604.4 40.8297 604.49 40.8897ZM598.02 35.3997C598.07 35.5197 598.12 35.6497 598.18 35.7697C598.17 35.8197 598.17 35.8697 598.17 35.9197C598.12 35.8497 598.05 35.7797 597.95 35.7497C594.02 34.4197 590.47 32.3597 586.76 30.5897C591.9 30.3497 597.68 27.9397 602.28 25.3197C601.18 28.5597 600.38 31.9097 598.65 34.8797C598.31 34.7197 597.84 34.9697 598.02 35.3997ZM601.73 43.6397C601.37 43.7797 601.01 43.9097 600.66 44.0497C597.6 42.3897 594.81 40.8297 592.1 38.5197C589.9 36.6497 587.85 34.6097 585.79 32.5797C585.77 32.5297 585.73 32.4897 585.69 32.4797C585.49 32.2897 585.3 32.0897 585.1 31.8997C585.39 31.8197 585.67 31.7297 585.97 31.6597C586.11 31.6297 586.2 31.5497 586.26 31.4597C589.92 33.4497 593.6 35.8097 597.63 36.7697C598.01 36.8597 598.27 36.4997 598.27 36.1797C598.31 36.2497 598.37 36.2997 598.43 36.3397C599.43 38.7897 600.35 41.3797 601.73 43.6397ZM611.16 33.1697C610.55 34.5997 609.92 36.0197 609.32 37.4397C609.91 35.0597 610.63 32.7197 611.42 30.3897C611.56 29.9797 611.71 29.5597 611.86 29.1497C611.94 29.2097 612.01 29.2697 612.09 29.3397C611.69 30.4297 611.29 31.5197 610.89 32.6097C610.79 32.8697 610.95 33.0897 611.16 33.1697ZM614.04 22.9397C613.98 23.2997 613.92 23.6697 613.86 24.0297C613.85 24.0797 613.86 24.1197 613.86 24.1597C613.66 24.8497 613.47 25.5297 613.24 26.1797C613 26.8597 612.74 27.5397 612.49 28.2197C612.41 28.1597 612.34 28.0897 612.27 28.0297C613.05 25.9297 613.83 23.7797 614.11 21.6097C614.11 22.0597 614.07 22.4997 614.04 22.9397ZM614.09 20.8197C613.96 20.6797 613.72 20.6597 613.61 20.8797C612.62 22.8397 611.91 24.9997 611.24 27.1597C609.57 25.7297 607.9 24.3097 606.22 22.8897C608.9 22.3297 611.52 21.3997 614.09 20.4697C614.09 20.5797 614.08 20.6997 614.09 20.8197ZM597.9 9.93974C602.88 13.9597 609.15 16.3197 614.85 19.1497C614.84 19.1797 614.83 19.2097 614.81 19.2397C614.68 19.1297 614.5 19.0697 614.29 19.1497C611.32 20.2197 608.36 21.1897 605.31 21.9197C605.24 21.8397 605.18 21.7597 605.1 21.6797C605.36 21.5597 605.53 21.2197 605.23 21.0097C604.79 20.6997 604.32 20.4297 603.84 20.1597C601.45 17.0397 599.75 13.4297 597.9 9.93974ZM597.32 18.1597C599.01 19.0797 601.03 20.5197 603.03 21.2697C603.05 21.3597 603.08 21.4497 603.17 21.5297C603.42 21.7597 603.67 21.9897 603.92 22.2197C603.92 22.2397 603.91 22.2697 603.91 22.2897C603.85 22.3197 603.81 22.3597 603.77 22.3997C603.58 22.3697 603.39 22.4397 603.29 22.6697C603.16 22.9697 603.05 23.2697 602.93 23.5797C597.61 26.4697 591.4 29.3197 585.36 29.6097C586.17 27.5797 586.82 25.4897 587.46 23.3897C588.3 20.6097 589.43 17.6397 589.96 14.7297C592.47 15.7397 594.91 16.8497 597.32 18.1597ZM582.13 15.7397C584.58 14.9397 587.05 14.2397 589.52 13.4897C589.5 13.5197 589.49 13.5597 589.47 13.5897C589.45 13.5797 589.43 13.5797 589.4 13.5697C588.94 13.4897 588.7 14.1597 589.12 14.3597C588.16 16.5097 587.65 18.9597 587 21.1997C586.15 24.1097 585.22 26.9697 584.2 29.8097C584.13 29.8397 584.06 29.8797 584.01 29.9397C583.25 25.2297 583.14 20.4197 582.13 15.7397ZM578.05 27.5997C579.16 24.1297 580.16 20.6097 581.39 17.1697C582.08 21.7497 582.28 26.3997 583.13 30.9597C583.13 30.9697 583.13 30.9897 583.14 30.9997C583.15 31.0597 583.16 31.1197 583.17 31.1797C582.53 31.4097 581.91 31.6597 581.32 31.8597C580.15 32.2597 577.57 33.4897 576.1 33.0397C577.14 31.7897 577.8 28.3597 578.05 27.5997ZM576.41 34.1397C577.25 34.2197 578.18 33.9597 578.96 33.7697C580.58 33.3697 582.14 32.7997 583.73 32.2897C583.55 34.6497 583.54 37.2397 584.35 39.3497C581.43 38.0197 578.49 36.3997 576.41 34.1397ZM587.82 40.8697C587.03 40.5397 586.2 40.1797 585.36 39.8097C585.36 38.3697 584.98 36.8997 584.86 35.4597C584.79 34.5797 584.76 33.6997 584.76 32.8197C585.08 33.1697 585.41 33.4997 585.73 33.8497C586.36 36.2197 586.7 38.8597 588.02 40.8797C588.12 41.0397 588.37 40.9397 588.36 40.7597C588.16 38.7897 587.43 36.7697 586.67 34.8297C586.87 35.0397 587.09 35.2397 587.29 35.4397C587.19 35.4897 587.12 35.5997 587.18 35.7197C587.68 36.6797 588.03 37.6997 588.4 38.7097C588.75 39.6797 589 40.8197 589.63 41.6497C589.02 41.3797 588.41 41.1197 587.82 40.8697ZM590.02 41.8097C590.1 41.7697 590.17 41.6897 590.17 41.5697C590.17 40.4797 589.57 39.4097 589.15 38.4397C588.79 37.6097 588.34 36.8197 587.89 36.0397C588.38 36.5197 588.87 36.9897 589.37 37.4597C589.25 37.5497 589.17 37.6897 589.23 37.8697C589.46 38.5597 589.7 39.2597 589.93 39.9497C590.14 40.5897 590.26 41.3397 590.81 41.7797C590.97 41.9097 591.22 41.8197 591.26 41.6197C591.38 41.0197 591.1 40.4997 590.88 39.9397C590.66 39.3897 590.45 38.8297 590.24 38.2797C590.6 38.6197 590.98 38.9397 591.34 39.2697C591.26 39.3697 591.22 39.4997 591.28 39.6597C591.54 40.4097 591.79 41.1597 592.11 41.8797C592.25 42.1997 592.43 42.6097 592.69 42.8997C591.78 42.5397 590.89 42.1797 590.02 41.8097ZM593.41 43.1597C593.49 43.1197 593.56 43.0497 593.58 42.9497C593.67 42.4197 593.24 41.9897 593.01 41.5397C592.79 41.1197 592.61 40.6697 592.43 40.2297C592.63 40.3997 592.84 40.5797 593.06 40.7597C592.94 40.8497 592.87 41.0097 592.94 41.2097C593.26 42.0597 593.9 43.2897 594.79 43.6297C594.96 43.6997 595.2 43.5797 595.17 43.3697C595.11 42.9597 594.91 42.6997 594.64 42.3697C594.44 42.1297 594.27 41.8797 594.1 41.6197C595.08 42.4097 596.15 43.1897 597.27 43.7997C597.07 43.8597 596.91 44.0597 596.9 44.2797C595.73 43.9697 594.56 43.5897 593.41 43.1597ZM597.27 117.81C597.14 117.96 597.02 118.12 596.9 118.28C596.78 118.43 596.65 118.57 596.53 118.72C588.43 128.15 576.18 134.16 563.31 135.34C563.28 135.27 563.22 135.2 563.11 135.19C551.32 133.74 541.33 130.39 531.66 123.31C518.3 113.54 517.93 100.08 515.89 85.1497C515.85 84.8297 515.41 84.8697 515.4 85.1897C514.89 99.5697 518.01 112.92 529.01 122.69C536.19 129.07 546.22 134.17 556.15 135.5C555.23 135.45 554.31 135.39 553.4 135.29C528.4 132.65 511.04 106.92 515.04 82.9197C515.34 83.3797 516.15 83.4097 516.24 82.7297C518.89 61.0897 536.25 47.6297 557.24 45.4697C567.37 44.4297 577.61 46.8397 586.39 51.8697C585.7 52.6397 585.05 53.4297 584.47 54.2397C584.37 54.3097 584.29 54.3897 584.2 54.4597C583.89 54.2397 583.53 54.0797 583.18 53.9097C582.78 53.7197 582.46 54.0597 582.45 54.3997C582.12 54.2697 581.79 54.1597 581.54 54.0497C581.02 53.8197 580.63 54.3897 580.81 54.7897C580.25 54.5797 579.69 54.3497 579.11 54.1697C578.82 54.0797 578.58 54.2797 578.52 54.5097C577.69 54.1197 576.85 53.7497 575.99 53.4097C575.61 53.2597 575.38 53.6897 575.6 53.9497C559.23 47.7897 535.34 55.9297 527.64 71.7797C520.28 84.2297 521.54 97.2997 528.49 107.6C528.28 107.7 528.13 107.95 528.29 108.21C535.89 121.08 551.85 131.27 567.22 126.74C567.42 126.68 567.49 126.52 567.5 126.36C572.41 126.05 577.25 124.79 581.77 122.5C583.38 122.78 585.2 122.73 586.58 122.04C586.75 121.95 586.77 121.68 586.55 121.64C585.64 121.49 584.72 121.65 583.81 121.74C583.57 121.77 583.34 121.75 583.11 121.76C583.83 121.36 584.54 120.92 585.25 120.47C585.26 120.63 585.34 120.78 585.52 120.81C586.91 121 589.79 120.88 590.05 119C590.08 118.79 589.88 118.59 589.66 118.67C589.08 118.89 588.67 119.37 588.11 119.64C587.37 120 586.61 120.11 585.8 120.1C586.53 119.61 587.24 119.08 587.95 118.53C588.02 118.59 588.12 118.64 588.24 118.64C588.91 118.62 589.54 118.52 590.18 118.32C590.93 118.09 591.33 117.71 591.77 117.09C591.88 116.94 591.75 116.73 591.56 116.79C590.72 117.08 589.91 117.43 589.06 117.63C589.36 117.35 589.29 116.94 589.06 116.72C590.04 115.82 590.94 114.84 591.8 113.81C591.43 114.45 591.06 115.1 590.69 115.74C590.48 116.11 591.06 116.47 591.31 116.14C594.17 112.38 596.92 107.64 597.67 102.87C599.96 95.1297 599.79 86.8897 597.52 79.2897C597.64 79.4097 597.85 79.4197 597.94 79.2197C598.64 77.6197 598.35 75.5397 598.34 73.8297C598.34 73.3197 597.58 73.3997 597.57 73.8897C597.52 75.5097 597.16 77.3397 597.42 78.9497C596.46 75.8397 595.17 72.8397 593.54 70.0297C593.6 70.0097 593.66 69.9497 593.67 69.8697C593.7 68.7097 593.35 67.5597 593.13 66.4297C593.08 66.1697 592.66 66.1897 592.71 66.4597C592.88 67.4797 592.98 68.5397 593.26 69.5397C592.44 68.1797 591.55 66.8597 590.58 65.5997C590.72 64.7397 590.34 63.6797 590.07 62.9597C590.06 62.9297 590.04 62.9097 590.03 62.8897C590.1 62.7897 590.16 62.6897 590.23 62.5897C591.53 63.8697 592.77 65.2097 593.99 66.5897C593.78 66.5797 593.55 66.7097 593.59 66.9597C593.83 68.3597 593.72 70.0697 594.47 71.3197C594.56 71.4697 594.81 71.4097 594.84 71.2397C595.05 69.8797 594.65 68.3497 594.34 67.0097C594.56 67.2597 594.77 67.5197 594.99 67.7697C594.81 67.7597 594.63 67.8597 594.68 68.0897C594.99 69.5897 595.21 71.0997 595.55 72.5897C595.6 72.7997 595.95 72.7597 595.96 72.5597C596.06 71.0897 595.67 69.6397 595.36 68.2197C595.78 68.7097 596.21 69.1897 596.62 69.6997C596.79 69.9097 597.18 69.7397 597.06 69.4697C595.6 66.3797 593.42 63.8097 590.91 61.5697C591.91 60.2297 593.05 59.0297 594.27 57.8997C602.62 66.6097 605.79 79.4897 606.21 91.3097C606.41 96.9697 605.45 102.24 603.59 107.02C603.43 106.94 603.21 106.95 603.1 107.1C601.86 108.74 601.3 110.98 600.4 112.83C599.53 114.62 598.47 116.27 597.27 117.81ZM581.63 60.4097C580.18 62.8697 579 65.4997 578.32 68.1697C579.04 64.6497 580.14 61.1797 582.04 58.3197C581.8 58.8497 581.58 59.3797 581.42 59.8697C581.33 60.1297 581.45 60.3297 581.63 60.4097ZM547.46 122.83C549.93 123.88 552.52 124.66 555.16 125.19C556.44 125.52 557.73 125.77 559.03 125.97C554.43 125.78 550.04 124.99 545.4 122.84C540.91 120.77 537.12 117.6 533.84 113.95C537.61 117.57 542.21 120.6 547.46 122.83ZM526.32 77.5797C526.38 77.5897 526.44 77.5797 526.5 77.5697C522.6 89.8297 524.55 101.89 533.22 111.73C524.79 102.64 521.74 89.8997 526.32 77.5797ZM556.11 123.77C551.19 122.56 546.27 120.35 541.42 117.17C523.59 105.48 522.75 86.3597 531.56 68.6397C531.66 68.4397 531.62 68.2597 531.52 68.1297C541.82 54.3997 564.67 49.4297 579.28 57.2497C579.81 57.5297 580.3 57.8497 580.8 58.1697C577.41 63.4097 576.62 70.8197 575.9 76.5397C574.66 86.4697 578.41 98.1797 586.28 104.62C588.15 106.78 590.28 108.72 592.6 110.43C592.42 110.7 592.26 110.98 592.09 111.25C584.26 122.03 569.6 126.06 556.11 123.77ZM594.38 103.42C594.32 103.51 594.28 103.63 594.33 103.77C594.51 104.3 594.81 105.06 595.26 105.54C595.23 105.62 595.19 105.69 595.16 105.77C594.98 105.46 594.78 105.15 594.61 104.87C594.14 104.05 593.69 103.22 593.25 102.39C593.61 102.74 594 103.07 594.38 103.42ZM588.51 64.8397C596.62 74.4397 599.63 88.5297 596.91 100.52C596.74 101.25 596.55 101.96 596.34 102.66C586.21 93.3297 584.07 77.6497 588.51 64.8397ZM594.66 57.5297C605.57 47.7497 623.78 46.1697 635.23 55.6697C645.96 64.5697 648.55 80.8197 642.77 93.1197C636.18 107.13 618.47 113.7 604.49 107.96C605.99 104.31 607 100.43 607.43 96.3597C609.03 80.8897 604.05 67.1097 594.66 57.5297ZM652.25 86.3197C649.36 107.69 630.86 117.88 610.55 116.28C607.32 116.03 604.25 115.27 601.34 114.15C601.54 113.83 601.72 113.5 601.9 113.17C602.31 113.87 602.94 114.51 603.7 114.43C603.9 114.41 604.01 114.22 603.95 114.04C603.73 113.28 602.88 112.9 602.42 112.24C602.51 112.08 602.58 111.91 602.67 111.76C603.3 112.58 604.22 113.71 605.14 113.44C605.24 113.41 605.31 113.29 605.3 113.19C605.29 113.08 605.26 113 605.22 112.91C606.41 113.6 607.62 114.2 609 114.6C609.16 114.65 609.23 114.39 609.09 114.33C607.89 113.83 606.71 113.22 605.56 112.58C605.79 112.67 606.02 112.78 606.27 112.81C606.45 112.84 606.58 112.7 606.6 112.55C606.63 112.59 606.65 112.63 606.7 112.66C608.21 113.26 609.73 113.84 611.28 114.33C612.62 114.76 614.38 115.48 615.79 115.15C615.95 115.11 615.99 114.87 615.85 114.78C614.89 114.13 613.56 114.02 612.45 113.74C610.6 113.27 608.77 112.72 606.97 112.09C606.74 112.01 606.57 112.18 606.54 112.37C605.84 111.34 604.6 110.71 603.6 109.93C603.64 109.84 603.69 109.76 603.73 109.67C605.61 110.51 607.57 111.21 609.64 111.69C610.04 111.78 610.22 111.19 609.85 111.02C609.56 110.88 609.29 110.74 609 110.6C611.44 111.13 613.92 111.33 616.38 111.22C616.28 111.35 616.26 111.54 616.46 111.63C618.65 112.58 621.77 112.97 623.96 111.83C624.13 111.74 624.17 111.43 623.93 111.41C621.5 111.21 619.24 112.11 616.86 111.18C618.53 111.08 620.18 110.83 621.82 110.46C621.84 110.47 621.84 110.49 621.87 110.49C623.77 110.86 626.02 111.3 627.92 110.76C628.14 110.7 628.08 110.39 627.89 110.34C626.5 110.01 625.04 110.07 623.6 110C625.4 109.49 627.15 108.79 628.85 107.97C628.87 108.08 628.95 108.19 629.1 108.19C631.02 108.25 633.26 107.92 634.83 106.74C634.95 106.65 634.88 106.45 634.73 106.46C632.93 106.55 631.31 107.47 629.52 107.65C633.09 105.83 636.35 103.34 639.1 100.3C640.93 99.9597 642.46 99.0597 643.4 97.4197C643.45 97.3297 643.33 97.2297 643.25 97.2897C642.16 98.1697 641.09 99.0097 639.8 99.4897C640.5 98.6697 641.16 97.7997 641.78 96.9097C643.63 95.6397 645.64 94.0397 646.52 91.9897C646.58 91.8697 646.43 91.7197 646.31 91.8097C645.17 92.7297 644.15 93.7997 643.12 94.8497C643.15 94.7997 643.18 94.7597 643.21 94.7097C643.87 93.5697 644.41 92.3797 644.9 91.1797C645.93 89.9297 646.92 88.5097 647.3 86.9997C647.34 86.8297 647.1 86.7197 647 86.8597C646.53 87.4797 646.14 88.1497 645.75 88.8197C649.5 76.5297 644.88 62.1997 635.03 54.0297C621.6 42.8997 596.53 48.0497 588.42 63.4397C588.35 63.4597 588.29 63.5097 588.24 63.5997C583.34 73.9597 584.16 86.8297 590.04 96.6297C589.58 96.0297 589.11 95.4497 588.68 94.7997C582.34 85.3897 582.9 74.2097 587.14 64.1397C587.31 63.7397 586.73 63.4697 586.53 63.8497C579.71 76.7897 583.34 92.0197 592.88 101.96C592.59 101.92 592.22 102.21 592.37 102.54C592.77 103.4 593.14 104.28 593.58 105.12C593.88 105.7 594.17 106.44 594.66 106.91C594.57 107.09 594.5 107.28 594.42 107.46C594.06 108.01 593.75 108.6 593.42 109.14C593.32 109.3 593.22 109.46 593.12 109.61C591.13 108.15 589.25 106.51 587.55 104.66C587.54 104.55 587.5 104.44 587.4 104.35C586.99 103.96 586.6 103.55 586.21 103.14C586.12 103.02 586.02 102.92 585.92 102.8C579.66 95.0997 577.95 85.8397 578.31 76.4397C578.46 76.4097 578.58 76.3097 578.55 76.1097C578.47 75.5297 578.43 74.9497 578.41 74.3897C578.51 72.9797 578.64 71.5697 578.82 70.1597C581.95 63.0597 585.33 56.2997 591.23 50.9597C593.53 48.8797 596.15 47.1997 598.97 45.8697C599 45.8697 599.02 45.8797 599.05 45.8797C599.06 45.9197 599.11 45.9397 599.14 45.9697C597.63 46.7297 596.25 47.5997 595.17 48.5297C594.67 48.9597 595.25 49.8097 595.77 49.3797C600.01 45.8797 605.04 45.7997 610.06 44.3597C610.35 44.2797 610.29 43.8397 610.01 43.7897C608.99 43.5897 607.87 43.5897 606.72 43.6897C606.72 43.5297 606.66 43.3597 606.54 43.2497C606.64 43.2097 606.74 43.1697 606.84 43.1197C607.07 43.0597 607.29 42.9997 607.52 42.9397C607.74 43.2197 608.29 43.2397 608.49 42.8597C608.52 42.8097 608.56 42.7697 608.59 42.7197C611.9 42.0197 615.27 41.6497 618.52 41.5697C642.26 40.9797 655.13 65.0597 652.25 86.3197Z" fill="#6E8058"/>
<path d="M611.29 111.13C610.8 111 610.67 111.76 611.15 111.9C613.77 112.66 616.79 113.97 619.55 113.69C619.68 113.68 619.71 113.5 619.6 113.44C617.08 112.2 613.98 111.86 611.29 111.13Z" fill="#6E8058"/>
<path d="M628.67 109.1C627.77 109.2 626.88 109.25 625.97 109.24C625.77 109.24 625.75 109.59 625.95 109.6C627.62 109.69 629.89 110.21 631.31 109.08C631.42 108.99 631.36 108.84 631.22 108.83C630.38 108.8 629.52 109.01 628.67 109.1Z" fill="#6E8058"/>
<path d="M634.05 105.62C633.85 105.65 633.87 105.96 634.07 105.94C635.37 105.84 636.79 105.64 637.69 104.6C637.79 104.48 637.66 104.32 637.53 104.37C636.32 104.75 635.32 105.42 634.05 105.62Z" fill="#6E8058"/>
<path d="M639.36 102C638.7 102.32 638.01 102.58 637.33 102.85C636.98 102.98 637.17 103.51 637.53 103.39C638.76 102.98 640.45 102.61 641.27 101.51C641.37 101.38 641.24 101.23 641.1 101.26C640.47 101.4 639.92 101.73 639.36 102Z" fill="#6E8058"/>
<path d="M632.27 50.8997C632.35 50.8697 632.31 50.7397 632.22 50.7697C632.14 50.7997 632.19 50.9297 632.27 50.8997Z" fill="#6E8058"/>
<path d="M635.43 53.6497H635.44L635.2 53.0097L635.43 53.6497Z" fill="#6E8058"/>
<path d="M634.58 51.9297C637.45 54.2797 639.62 57.1297 641.73 60.1397C641.97 60.4797 642.58 60.1797 642.39 59.7997C640.67 56.3797 638.02 53.7197 634.91 51.5397C634.64 51.3497 634.32 51.7197 634.58 51.9297Z" fill="#6E8058"/>
<path d="M550.76 126.72C550.35 126.47 549.9 127.16 550.31 127.43C553.69 129.68 558.06 131.56 562.21 131C562.6 130.95 562.67 130.34 562.25 130.29C558.12 129.78 554.35 128.88 550.76 126.72Z" fill="#6E8058"/>
<path d="M561.12 128.17C560.68 127.98 560.37 128.63 560.8 128.84C563.18 129.99 565.9 130.98 568.57 130.76C568.83 130.74 568.94 130.33 568.67 130.23C566.18 129.4 563.57 129.22 561.12 128.17Z" fill="#6E8058"/>
<path d="M565.87 127.25C565.39 127.15 565.28 127.86 565.74 127.99C568.25 128.7 571.14 130.13 573.81 129.82C574.14 129.78 574.28 129.28 573.93 129.15C571.42 128.16 568.49 127.82 565.87 127.25Z" fill="#6E8058"/>
<path d="M573.43 127.05C572.94 127.06 573.01 127.8 573.49 127.8C574.65 127.79 575.79 127.93 576.93 127.69C577.17 127.64 577.23 127.28 576.95 127.24C575.79 127.04 574.62 127.02 573.43 127.05Z" fill="#6E8058"/>
<path d="M524.27 74.0597C526.36 69.1397 529.76 63.7197 534.36 60.8297C534.41 60.7997 534.36 60.7197 534.31 60.7497C529.26 63.6597 525.53 68.3597 523.83 73.9197C523.75 74.1697 524.17 74.2997 524.27 74.0597Z" fill="#6E8058"/>
<path d="M564.76 50.1697C570.27 50.0597 575.38 50.3897 580.55 52.4197C580.78 52.5097 581 52.2097 580.79 52.0397C576.38 48.6097 569.95 49.0697 564.71 49.4397C564.23 49.4697 564.3 50.1797 564.76 50.1697Z" fill="#6E8058"/>
<path d="M590.92 63.7497C591.14 64.3197 591.3 64.8897 591.41 65.4897C591.42 65.5497 591.51 65.5497 591.51 65.4797C591.53 64.8397 591.35 64.2697 591.15 63.6597C591.1 63.5197 590.87 63.6097 590.92 63.7497Z" fill="#6E8058"/>
<path d="M591.92 65.0397C592.08 65.9997 592.41 66.9097 592.63 67.8597C592.66 67.9897 592.87 67.9397 592.86 67.8097C592.76 66.8497 592.55 65.9497 592.4 64.9997C592.34 64.7097 591.87 64.7397 591.92 65.0397Z" fill="#6E8058"/>
<path d="M595.92 70.4497C596.03 72.0597 595.91 73.7097 596.2 75.2997C596.26 75.6297 596.73 75.6897 596.8 75.3297C597.13 73.6997 596.8 72.0197 596.59 70.3997C596.53 69.9697 595.89 70.0097 595.92 70.4497Z" fill="#6E8058"/>
<path d="M598.78 78.5297C598.76 78.4697 598.74 78.3997 598.71 78.3397C598.7 78.3097 598.65 78.3297 598.66 78.3597C598.68 78.4197 598.71 78.4897 598.73 78.5497C598.75 78.5697 598.79 78.5597 598.78 78.5297Z" fill="#6E8058"/>
<path d="M587.9 98.3597C587.78 98.0997 587.42 98.2297 587.49 98.5097C587.87 100.08 588.04 102.59 589.58 103.5C589.72 103.59 589.89 103.44 589.88 103.29C589.84 102.51 589.41 101.82 589.11 101.11C588.72 100.18 588.33 99.2697 587.9 98.3597Z" fill="#6E8058"/>
<path d="M591.32 105.33C591.42 105.44 591.58 105.38 591.58 105.24C591.64 103.66 590.57 102.03 589.87 100.66C589.7 100.33 589.15 100.52 589.32 100.86C590.01 102.27 590.26 104.15 591.32 105.33Z" fill="#6E8058"/>
<path d="M594.28 106.8C593.97 105.9 593.39 105.13 592.95 104.3C592.41 103.28 591.93 102.21 591.6 101.11C591.47 100.69 590.88 100.93 590.97 101.34C591.42 103.31 592.11 105.86 593.78 107.16C594.02 107.35 594.38 107.1 594.28 106.8Z" fill="#6E8058"/>
<path d="M512.62 111.47C513.99 115.89 516.3 120.22 519.72 123.4C520 123.66 520.39 123.26 520.19 122.96C517.72 119.09 514.92 115.54 513.01 111.33C512.9 111.08 512.54 111.21 512.62 111.47Z" fill="#6E8058"/>
<path d="M516.7 124.2C516.38 123.81 515.72 124.26 516.05 124.66C517.14 125.99 518.52 126.66 520.07 127.33C520.42 127.48 520.66 126.97 520.32 126.8C518.99 126.12 517.67 125.36 516.7 124.2Z" fill="#6E8058"/>
<path d="M643.75 48.2097C644.04 48.5097 644.5 48.0497 644.27 47.7297C641.27 43.4197 636.24 41.3497 631.77 38.9697C631.45 38.7997 631.24 39.2897 631.54 39.4697C635.92 42.0397 640.17 44.5697 643.75 48.2097Z" fill="#6E8058"/>
<path d="M643.14 41.2497C642.79 40.8597 642.1 41.3197 642.46 41.7297C646.41 46.4397 649.42 51.5097 652.02 57.0597C652.23 57.5197 652.91 57.2797 652.76 56.7897C651 50.9097 647.21 45.7497 643.14 41.2497Z" fill="#6E8058"/>
<path d="M515.78 64.9697C517.28 63.2397 518.76 61.2697 519.99 59.3397C520.22 58.9697 519.84 58.4397 519.44 58.7397C517.55 60.1397 516.13 62.4297 514.92 64.4197C514.61 64.9297 515.41 65.3897 515.78 64.9697Z" fill="#6E8058"/>
<path d="M656.49 91.4397C656.43 95.1097 655.14 98.4297 653.99 101.86C653.81 102.38 654.48 102.71 654.77 102.23C656.67 98.9797 657.31 95.0997 657.19 91.3897C657.17 90.9297 656.5 90.9997 656.49 91.4397Z" fill="#6E8058"/>
<line y1="75.5" x2="500" y2="75.5" stroke="#6E8058"/>
<line x1="668" y1="75.5" x2="1168" y2="75.5" stroke="#6E8058"/>
</svg>
